<?xml version="1.0" encoding="utf-8"?>
<!-- Generator: Adobe Illustrator 24.0.0, SVG Export Plug-In . SVG Version: 6.00 Build 0)  -->
<svg version="1.1" id="Layer_1" xmlns="http://www.w3.org/2000/svg" xmlns:xlink="http://www.w3.org/1999/xlink" x="0px" y="0px"
	 viewBox="0 0 720 720" style="enable-background:new 0 0 720 720;" xml:space="preserve">
<style type="text/css">
	.st0{fill:#FFFFFF;}
	.st1{fill:#C16E00;}
	.st2{fill:#304F43;}
	.st3{fill:#F4AF14;}
	.st4{fill:#E5DED6;}
	.st5{fill:#A8381A;}
</style>
<g>
	
		<rect x="366.47" y="428.25" transform="matrix(0.6697 -0.7427 0.7427 0.6697 -196.1634 418.0311)" class="st0" width="10.72" height="2.55"/>
	
		<rect x="309.26" y="395.83" transform="matrix(0.9378 -0.3472 0.3472 0.9378 -118.448 133.105)" class="st0" width="5.95" height="2.56"/>
	
		<rect x="305.31" y="387.34" transform="matrix(0.9398 -0.3417 0.3417 0.9398 -114.0823 129.6636)" class="st0" width="11.32" height="2.56"/>
	
		<rect x="302.84" y="380.39" transform="matrix(0.9426 -0.3338 0.3338 0.9426 -109.7442 124.6351)" class="st0" width="9.94" height="2.56"/>
	
		<rect x="302.78" y="373.89" transform="matrix(0.9297 -0.3682 0.3682 0.9297 -116.5108 139.6905)" class="st0" width="10.07" height="2.56"/>
	<rect x="279.81" y="381.93" class="st0" width="4.54" height="2.56"/>
	
		<rect x="278.54" y="391.05" transform="matrix(0.9979 -0.0651 0.0651 0.9979 -24.9429 19.2629)" class="st0" width="9.07" height="2.56"/>
	
		<rect x="279.69" y="398.54" transform="matrix(0.9743 -0.2251 0.2251 0.9743 -82.6727 74.3706)" class="st0" width="10.39" height="2.56"/>
	
		<rect x="284.48" y="404.77" transform="matrix(0.9848 -0.1738 0.1738 0.9848 -66.2147 55.9612)" class="st0" width="3.87" height="2.56"/>
	
		<rect x="270.76" y="416.6" transform="matrix(0.7594 -0.6507 0.6507 0.7594 -206.4549 277.5266)" class="st0" width="2.41" height="2.56"/>
	
		<rect x="266.64" y="411" transform="matrix(0.7401 -0.6725 0.6725 0.7401 -207.5152 287.6427)" class="st0" width="3.43" height="2.56"/>
	
		<rect x="260.57" y="404.68" transform="matrix(0.8389 -0.5442 0.5442 0.8389 -178.2651 209.5682)" class="st0" width="8.71" height="2.56"/>
	
		<rect x="256.37" y="399.17" transform="matrix(0.8199 -0.5725 0.5725 0.8199 -181.9637 222.4339)" class="st0" width="12.42" height="2.56"/>
	<path class="st0" d="M469.68,225.58c-0.97-4.69-0.84-9.61-0.75-13.63c0.03-1.04,0.05-2.02,0.05-2.9c0-4.28-1.96-11.38-5.16-13.21
		c-1.01-0.58-2.3-0.54-3.84,0.12c-2.99,1.28-6.71,4.88-7.25,7c-0.21,0.84-1.53,2.65-2.96,4.39c0.06-4.58-0.23-8.97-2.34-16
		c-2.33-7.78-4.73-15.36-5.29-17.1c0.7-1.83,3.57-9.94,3.89-19.68c0.23-6.77,0.89-12.23,1.33-15.84c0.28-2.25,0.47-3.88,0.47-4.96
		c0-1.69-0.67-3.13-1.9-4.05c-1.78-1.33-4.49-1.48-8.04-0.43c-4.89,1.44-9.15,5.07-11.01,6.83c-0.66-0.64-1.6-1.52-2.61-2.37
		c-3.12-2.61-4.96-3.27-6.18-2.22c-0.68,0.59-1.11,1.68-1.25,3.08c-1.75,1.2-6.7,5.27-5.86,12.3c0.84,7.02,3.71,16.76,4.32,18.78
		c-0.35,2.16-0.61,4.38-0.72,6.62c-0.02,0.27-0.59,6.62-3.39,10.75c-1.38,2.04-5.32,8.98-9.52,16.38
		c-5.08,8.96-10.83,19.11-12.06,20.52c-0.83,0.96-4.27,4.15-8.29,7.88c-6.93,6.43-15.55,14.43-17.44,17.15
		c-1.16,1.67-5.18,7.64-9.66,14.32c2.87-11.56,5.67-29.06,5.67-33.63c0-2.56,1.68-5.78,3.64-9.53c2.19-4.19,4.68-8.95,5.55-14.28
		c1.57-9.61,0.76-17.15-2.49-23.03c-2.8-5.07-4.84-5.27-8.26-5.19c-0.37,0.01-0.76,0.02-1.17,0.02c-2.92,0-5.91,5.47-8.19,10.23
		c-2.3,4.79-4.46,10.49-4.97,12.6c-0.75,3.13-9.01,15.34-11.72,19.35l-0.11,0.16c-0.34,0.51-0.62,0.92-0.81,1.2
		c-1.53,2.3-5.39,11.9-6.89,15.71c-0.94-0.6-1.83-1.01-2.64-1.32c-0.51-0.82-1.76-2.63-3.7-4.13c-1.71-1.32-3.94-1.85-5.8-1.4
		c-1.38,0.34-2.44,1.2-3,2.42c-1.05,2.28-1.17,5.35-1.32,8.91l-0.06,1.5c-0.06,1.25-0.25,3.93-0.47,7.08
		c-0.03,0.42-0.06,0.85-0.09,1.29c-0.77,1.06-3.36,4.67-5.09,8.3c-1.21,2.52-3.07,8-4.73,12.86c-1.09,3.21-2.13,6.24-2.7,7.6
		c-0.2,0.47-0.44,1.14-0.72,1.95c-1.49,0.88-6.49,4.05-10.32,9.16c-4.85,6.47-18.56,28.48-20.11,30.97
		c-0.43,0.69-0.87,1.38-1.3,2.07c-3.84,6.1-7.47,11.86-8.81,19.88c-0.65,3.92-0.91,14.95-1.17,26.66
		c-0.33,14.34-0.7,30.59-1.87,34.98c-2.14,8.03,1.43,20.16,9.56,32.45c7.48,11.32,17.82,38.29,19.89,45.17
		c1.62,5.39,8.68,21.22,14.35,33.94c1.94,4.35,3.77,8.46,5.02,11.35c2.85,6.57,6.28,16.42,8.78,23.61c1.63,4.69,2.92,8.39,3.51,9.65
		c0.19,0.4,0.58,1.39,1.03,2.54c5.29,13.41,12.35,29,20.11,30.49c1.93,0.37,4.32,0.57,6.93,0.57c3.17,0,8.22-0.3,14.24-1.73
		c6.82-1.62,16.65-5.14,24.73-12.7c14.52-13.58,17.37-19.94,17.56-26.9c0.1-3.57-1.47-16.48-3.12-30.15
		c-1.44-11.9-2.93-24.21-3.02-28.23c-0.17-8.09,3.9-37.28,6.1-45.7c1.65-6.33,1.67-14.26,1.68-20.69c0-2.18,0.01-4.25,0.08-6.08
		c0-0.18,0.03-17.66,2.42-22.95c2.18-4.83,3.74-13.84,4.16-23.4c3.94-4.43,39.75-44.73,41.73-49.6c1.07-2.64,1.73-6.61,2.36-10.46
		c0.56-3.43,1.15-6.98,1.98-9.05c2.21-5.53,11.06-26.92,12.33-28.84c1.51-2.26,4.54-9.62,4.73-16.38c0.06-2.16,0.44-5.84,0.89-10.1
		C469.48,240.16,470.56,229.83,469.68,225.58z M461.35,223.61l-0.98,2.36l7.07,2.92c0.14,4.81-0.69,12.7-1.38,19.3
		c-0.09,0.82-0.17,1.61-0.25,2.38l-7.57-2.95l-0.93,2.38l8.23,3.21c-0.2,2.09-0.35,3.87-0.39,5.17l-9.14-4.61l-1.15,2.28l10.07,5.08
		c-0.07,0.55-0.16,1.1-0.26,1.64l-6.47-2.34l-0.87,2.4l6.78,2.45c-0.97,3.75-2.4,6.93-3.26,8.23c-1.65,2.47-11.57,26.77-12.58,29.31
		c-0.93,2.33-1.51,5.85-2.12,9.59c-0.03,0.16-0.05,0.32-0.08,0.48l-2.55-1.66l-1.4,2.14l3.47,2.27c-0.34,1.89-0.71,3.69-1.15,5.18
		l-6.51-4.34l-1.42,2.13l6.91,4.61c-0.58,0.91-1.59,2.26-2.94,3.98l-10.03-8.14l-1.61,1.98l10.04,8.15
		c-1.31,1.62-2.81,3.45-4.47,5.43l-9.32-8.32l-1.7,1.91l9.38,8.37c-0.97,1.15-1.97,2.34-3.01,3.55l-9.01-7.87l-1.68,1.93l9.04,7.89
		c-1.03,1.2-2.08,2.42-3.14,3.65l-7.22-7.11l-1.79,1.82l7.34,7.23c-0.75,0.87-1.51,1.74-2.26,2.61l-8.49-8.76l-1.84,1.78l8.64,8.92
		c-1,1.14-1.99,2.28-2.97,3.4l-7.26-7.6l-1.85,1.77l7.42,7.76c-1,1.14-1.98,2.26-2.94,3.35l-6.38-5.36l-1.02,1.21
		c-0.12-2.68-0.26-5.47-0.39-8.23c-0.38-7.7-0.74-14.97-0.56-18.23c0.12-2.12,0.92-4.77,1.78-7.59c1.6-5.28,3.41-11.27,1.38-16.1
		c-1.11-2.64-3.23-4.3-6.13-4.8c-4.64-0.79-10,1.58-12.51,4.34c-3.82,4.21-10.01,17.94-11.09,21.02c-0.98,2.77-1.5,8.86-2.11,15.91
		c-0.1,1.17-0.2,2.35-0.31,3.54c-0.4,4.55-2.54,10.53-4.42,15.82c-1.42,3.98-2.65,7.42-2.97,9.76c-0.28,2.01-0.8,4.35-1.35,6.85
		c-0.85,3.86-1.74,7.85-1.74,10.84v1.99c-0.67-1.35-1.32-2.61-1.94-3.7c-4.16-7.32-7.32-17.67-9.23-23.93
		c-0.45-1.46-0.83-2.72-1.14-3.65c-0.86-2.57-3.01-7.42-5.29-12.58c-2.14-4.84-4.36-9.84-5.74-13.47c-2.37-6.21-5.51-15-5.51-19.59
		c0-1.08,0.12-3.07,0.27-5.59c0.46-7.61,1.23-20.36-0.3-27.19c-1.92-8.54-4.3-19.17-4.3-23.74c0-1,0.06-2.3,0.13-3.81
		c0.25-5.61,0.6-13.29-1.59-16.74c-0.89-1.39-1.8-2.47-2.7-3.33c1.2-3.05,5.45-13.74,6.92-15.95c0.2-0.31,0.52-0.77,0.91-1.35
		c0.5-0.74,1.02-1.5,1.53-2.27l7.08,3.67l1.18-2.27l-6.83-3.54c0.85-1.28,1.69-2.56,2.5-3.82l9.72,4.4l1.05-2.33l-9.38-4.25
		c0.69-1.09,1.33-2.14,1.92-3.13l5.63,2.84l1.15-2.28l-5.5-2.77c1.06-1.91,1.8-3.47,2.04-4.45c0.04-0.15,0.09-0.35,0.15-0.55
		c0.24,0.01,0.5,0.02,0.8,0.02c2.72,0,7.97-0.8,12.5-6.16c3.47-4.1,4.06-8.26,3.85-11.27c0.18,0.29,0.36,0.6,0.55,0.95
		c2.96,5.37,3.68,12.36,2.21,21.39c-0.81,4.93-3.19,9.49-5.3,13.52c-1.62,3.09-3.05,5.85-3.64,8.42l-3.08-2.22l-1.49,2.07l4.27,3.08
		c-0.05,1.21-0.23,2.99-0.5,5.15l-5.08-3.11l-1.33,2.18l6.04,3.69c-0.19,1.3-0.4,2.68-0.63,4.11l-6.44-3.85l-1.31,2.19l7.3,4.36
		c-0.32,1.9-0.68,3.86-1.05,5.83l-8.12-5.5l-1.43,2.12l9.02,6.11c-0.33,1.63-0.67,3.24-1.01,4.79l-11.39-7.34l-1.38,2.15l12.16,7.84
		c-0.48,2-0.96,3.85-1.43,5.47l-8.32-7.7l-1.74,1.88l9.2,8.51c-0.18,0.5-0.35,0.96-0.52,1.36c-0.21,0.31-0.41,0.61-0.61,0.92
		l-7.99-6.91l-1.67,1.93l8.23,7.11c-0.72,1.07-1.41,2.11-2.08,3.1l-5.69-5.44l-1.77,1.85l6.01,5.75c-0.53,0.79-1.03,1.54-1.49,2.23
		l-4.3-2.53l-1.3,2.2l4.17,2.46c-0.17,0.25-0.33,0.49-0.47,0.71l-0.39,0.58l2.13,1.42l0.21-0.31c0.09-0.14,4.28-6.4,9.13-13.64
		l0.04,0.02l0.1-0.23c5.94-8.87,12.82-19.11,14.37-21.34c1.72-2.48,10.58-10.7,17.08-16.73c4.22-3.92,7.55-7.01,8.48-8.08
		c1.39-1.61,6.96-11.43,12.4-21.01c4.13-7.29,8.04-14.18,9.36-16.12c3.23-4.76,3.81-11.7,3.83-12.03c0.12-2.33,0.39-4.64,0.78-6.88
		l0.02-0.01l-0.01-0.04c2.49-14.34,9.63-26.28,9.94-26.8c0.39-0.41,3.15-3.19,6.77-5.25c-0.1,2.67-0.19,6.92,0.21,8.54l0.1,0.42
		c0.54,2.29,1.97,8.35,8.57,8.35c0.04,0,0.09,0,0.13,0c-0.07,1.19-0.13,2.41-0.17,3.7c-0.04,1.09-0.11,2.16-0.21,3.2l-8.45-3.76
		l-1.04,2.34l9.18,4.08c-0.2,1.47-0.45,2.86-0.72,4.16l-9.72-4.79l-1.13,2.29l10.27,5.06c-0.24,0.95-0.47,1.81-0.7,2.58l-4.82-1.65
		l-0.83,2.42l4.88,1.66c-0.33,0.97-0.56,1.55-0.6,1.64l-0.09,0.22l-0.03,0l0.01,0.07l-0.06,0.14l0.09,0.3
		c0.36,4.27-0.44,9.54-1.47,14.52l-9.11-4.69l-1.17,2.27l9.72,5c-0.25,1.12-0.51,2.21-0.76,3.25l-12.27-6.73l-1.23,2.24l12.88,7.06
		c-0.27,1.13-0.52,2.17-0.72,3.09l-10.9-6.25l-1.27,2.22l11.68,6.7c-0.04,0.3-0.07,0.57-0.08,0.81c-0.04,0.87-0.34,2.12-0.83,3.56
		l-10.55-6.42l-1.33,2.18l10.95,6.66c-1.96,4.71-5.29,10.61-8.58,14.35c-3.68,4.19-6.91,13.98-9.27,21.14
		c-1.09,3.31-2.03,6.17-2.63,7.26c-2.23,4.05-0.2,11.15-0.11,11.45l0.11,0.36l2.45-0.71l-0.1-0.36c-0.02-0.06-1.8-6.42-0.11-9.5
		c0.71-1.29,1.64-4.11,2.83-7.71c2.29-6.94,5.42-16.44,8.75-20.24c2.49-2.83,5.19-7.03,7.41-11.52c2.14-4.32,3.47-8.21,3.56-10.4
		c0.05-1.25,0.7-3.92,1.45-7.03c1.08-4.45,2.41-9.98,3.02-15.23c0.92,2.97,2.03,6.58,3.15,10.29c1.02,3.41,1.59,6.16,1.9,8.63
		l-3.49-1.82l-1.18,2.27l4.94,2.58c0.07,1.26,0.08,2.48,0.06,3.72l-5.94-3.31l-1.24,2.23l7.12,3.97c0,0.02,0,0.03,0,0.04l-0.04,1.34
		c-0.02,0.55-0.1,1.29-0.25,2.17l-5.52-3.42l-1.35,2.17l6.35,3.93c-2.29,10.6-9.02,32.16-11.42,38.23
		c-1.79,4.54-1.71,10.12-1.64,15.05c0.01,0.64,0.02,1.27,0.02,1.89l-7.87-3.35l-1,2.35l8.84,3.77c-0.03,1.06-0.1,2.07-0.23,2.96
		c-0.06,0.43-0.14,0.85-0.23,1.28l-9.87-6.34l-1.38,2.15l10.62,6.82c-0.37,1.33-0.8,2.58-1.2,3.65l-10.37-6.84l-1.41,2.13l10.8,7.12
		c-0.37,0.85-0.62,1.36-0.63,1.38l-0.17,0.34l2.29,1.14l0.17-0.33c0.12-0.24,2.99-6,3.91-12.12c0.35-2.32,0.31-5.1,0.27-8.04
		c-0.07-4.68-0.15-9.99,1.46-14.07c2.61-6.61,12.18-37.12,12.37-43.95l0.01-0.44c0.31-0.34,0.82-0.9,1.41-1.59
		c1.22,2.05,3.26,5.93,3.61,9.34c0.01,0.09,0.02,0.18,0.02,0.28l-3.52-0.84l-0.59,2.49l4.19,0.99c-0.01,1-0.04,2.13-0.11,3.36
		l-4.97-1.78l-0.86,2.4l5.64,2.03c-0.05,0.6-0.11,1.22-0.17,1.85l-4.63-1.59l-0.83,2.42l5.17,1.77c-0.76,6.15-2.08,12.86-3.95,17.42
		c-0.65,1.58-1.27,3.03-1.82,4.31l-0.06,0.13c-2.72,6.34-4.36,10.16-4.36,16.81c0,1.05,0.03,2.26,0.07,3.68
		c0.05,1.9,0.1,4.1,0.09,6.43l-5.03-3.09l-1.34,2.18l6.31,3.87c-0.06,1.5-0.16,3.02-0.32,4.54l-5.68-3.89l-1.44,2.11l6.75,4.63
		c-0.16,0.99-0.34,1.96-0.57,2.92l-4.91-2.47l-1.15,2.28l5.34,2.69c-0.94,2.87-2.29,5.43-4.24,7.34l-0.27,0.26l1.79,1.83l0.27-0.26
		c7.59-7.42,7.19-22.45,6.95-31.43l0-0.15c-0.03-1.32-0.06-2.47-0.06-3.46c0-6.12,1.47-9.56,4.15-15.8l0.04-0.09
		c0.56-1.3,1.19-2.78,1.85-4.39c3.8-9.24,5.38-26.3,4.79-32.04c-0.46-4.41-3.26-9.3-4.44-11.18c1.12-1.46,2.16-3.01,2.42-4.09
		c0.16-0.62,1.31-2.05,2.79-3.32c0.15,1.7,0.45,4.19,1.04,7.06c0.5,2.41,2.04,4.83,4.45,6.98c1.11,0.99,2.16,1.71,2.81,2.13
		c0.01,1.34,0.04,2.72,0.14,4.13l-7.09-2.91l-0.97,2.36l8.36,3.42c0.11,0.86,0.24,1.72,0.42,2.57L461.35,223.61z M395.39,424.02
		l-9.27,5.4l1.29,2.21l7.98-4.65c-0.01,1.96-0.02,3.96-0.09,5.98l-13.82,7.06l1.16,2.28l12.51-6.39c-0.14,2.28-0.38,4.52-0.76,6.65
		l-16.93,9.61l1.26,2.22l14.93-8.47c-0.46,1.85-0.97,4.42-1.51,7.44l-16.44,8.15l1.13,2.29l14.77-7.32
		c-0.43,2.57-0.86,5.35-1.27,8.19l-13.89,6.57l1.09,2.31l12.37-5.85c-0.34,2.45-0.65,4.9-0.94,7.27l-12.54,6.22l1.14,2.29
		l11.06-5.48c-0.24,2.18-0.45,4.26-0.62,6.15l-11.58,5.9l1.16,2.28l10.19-5.19c-0.12,1.87-0.18,3.46-0.16,4.64
		c0.01,0.36,0.03,0.79,0.06,1.26l-10.19,5.53l1.22,2.25l9.18-4.98c0.14,1.6,0.33,3.47,0.56,5.57l-12.05,6.75l1.25,2.23l11.11-6.22
		c0.23,2.08,0.49,4.31,0.77,6.65l-12.07,7.12l1.3,2.2l11.1-6.55c0.25,2.07,0.51,4.2,0.77,6.36l-11.9,7.02l1.3,2.2l10.94-6.45
		c0.28,2.31,0.56,4.62,0.82,6.86l-11.46,7.17l1.35,2.17l10.43-6.52c0.19,1.62,0.37,3.19,0.54,4.69l-10.08,8.1l1.6,1.99l8.8-7.08
		c0.34,3.15,0.59,5.82,0.71,7.72l-11.14,9.5l1.66,1.94l9.5-8.1c-0.47,5.89-3.64,11.79-16.69,24.01
		c-7.67,7.17-17.05,10.53-23.58,12.08c-8.58,2.04-16.01,1.93-20.09,1.14c-7.37-1.42-15.53-22.12-18.21-28.93
		c-0.51-1.29-0.87-2.21-1.09-2.69c-0.53-1.13-1.8-4.76-3.41-9.4c-2.52-7.23-5.97-17.13-8.85-23.79c-1.24-2.86-2.99-6.78-5.04-11.37
		c-5.34-11.98-12.66-28.4-14.23-33.63c-2.09-6.97-12.58-34.32-20.2-45.84c-3.69-5.58-6.5-11.29-8.13-16.54
		c-1.69-5.42-2.06-10.21-1.09-13.85c0.31-1.15,0.56-2.95,0.77-5.25l10.42-4.72l-1.06-2.33l-9.14,4.14c0.1-1.43,0.19-2.98,0.27-4.63
		l4.43-1.64l-0.89-2.4l-3.42,1.27c0.25-6.06,0.41-13.1,0.57-20.05c0.27-11.58,0.52-22.53,1.14-26.27c0.59-3.52,1.68-6.61,3.04-9.5
		l0.2,1.4l7.5-1.08c-0.2,1.45-0.37,2.94-0.53,4.45l-9,1.71l0.48,2.51l8.26-1.57c-0.13,1.35-0.24,2.7-0.35,4.04l-6.83,1.73l0.63,2.48
		l5.99-1.52c-0.24,3.23-0.2,7.82-0.15,12.67c0.08,8.32,0.19,19.71-1.61,22.37l-0.21,0.31l2.11,1.44l0.21-0.31
		c2.26-3.32,2.15-13.75,2.06-23.84c-0.05-4.84-0.09-9.42,0.15-12.54c0.66-8.57,1.53-18.2,3.55-24.06
		c1.25-3.65,7.31-8.01,10.91-10.35c-0.34,1.57-0.56,3.29-0.65,5.17l-5.67,0.65l0.29,2.54l5.36-0.61c0.02,0.76,0.08,1.56,0.16,2.37
		l-10.18,1.5l0.37,2.53l10.08-1.49c0.1,0.85,0.19,1.72,0.28,2.6l-10.84,2.55l0.58,2.49l10.49-2.46c0.74,8.68,1.06,18.23,1.22,23.39
		c0.03,1.03,0.06,1.89,0.09,2.53c0.04,0.97,0.12,2.19,0.21,3.61c0.29,4.43,0.84,12.67-0.38,14.63l-0.2,0.32l2.17,1.35l0.2-0.32
		c1.53-2.45,1.25-8.77,0.76-16.15c-0.09-1.39-0.17-2.59-0.21-3.53c-0.02-0.64-0.05-1.5-0.09-2.56c-0.21-6.5-0.66-20.03-1.91-30.05
		c-0.37-2.99-0.34-5.61-0.06-7.94l10.37-0.02l0-2.56l-9.94,0.02c0.38-1.78,0.9-3.36,1.46-4.78l8.5-0.08l-0.03-2.56l-7.36,0.07
		c0.27-0.58,0.55-1.14,0.81-1.67c0.38-0.78,0.74-1.51,1.04-2.2c0.17-0.39,0.36-0.87,0.57-1.41l8.75,0l0-2.56l-7.83,0
		c0.97-2.83,2.1-6.4,3.14-9.71c1.3-4.11,2.52-7.99,3.14-9.46c0.1-0.24,0.22-0.55,0.35-0.87l6.05,0.97l0.41-2.52l-5.57-0.9
		c0.23-0.66,0.48-1.37,0.73-2.12l6.89,1.01c-0.5,7.71-1.68,18.34-2.76,21.58c-1.55,4.65-3.32,14.89-2.4,23.12
		c0.36,3.23,1.17,6.82,2.03,10.61c1.32,5.84,2.69,11.87,2.48,17c-0.36,8.58-0.9,15.96-0.9,16.03l-0.03,0.37l2.55,0.18l0.03-0.38
		c0.02-0.31,0.55-7.67,0.9-16.11c0.23-5.47-1.18-11.67-2.54-17.69c-0.73-3.22-1.4-6.27-1.8-9.03l9.89-0.99l-0.25-2.54l-9.92,0.99
		c-0.08-1.13-0.12-2.29-0.12-3.47l10.35-1.5l-0.37-2.53l-9.91,1.44c0.09-1.86,0.27-3.71,0.5-5.47l9.92-1.19l-0.3-2.54l-9.22,1.11
		c0.46-2.7,1.02-5.04,1.55-6.61c1.39-4.16,2.94-19.79,3.12-27.12h9.95v-2.56h-9.92c0.03-1.49,0.11-3.33,0.22-5.35l9.7-0.04
		l-0.01-2.56l-9.54,0.04c0.14-2.38,0.31-4.89,0.48-7.28c1.93,1.04,3.75,1,5.02,0.74c2.79-0.57,5-2.62,5.74-4.35
		c0.89-2.09,1.41-8.67,1.62-11.97c1.6,0.82,3.32,2.15,4.97,4.75c1.76,2.76,1.42,10.28,1.19,15.25c-0.07,1.47-0.13,2.86-0.13,3.93
		c0,4.85,2.32,15.18,4.36,24.3c1.46,6.48,0.7,19,0.24,26.5c-0.15,2.55-0.28,4.57-0.28,5.72c0,4.95,3.04,13.55,5.68,20.5
		c0.54,1.41,1.2,3.02,1.92,4.74l-5.67,3.28l1.28,2.21l5.4-3.13c0.79,1.82,1.63,3.72,2.47,5.62l-9.23,6.59l1.48,2.08l8.8-6.28
		c0.92,2.09,1.8,4.08,2.55,5.85l-8.94,7.66l1.66,1.94l8.31-7.12c0.4,0.98,0.73,1.84,0.95,2.52c0.3,0.91,0.68,2.16,1.14,3.66
		c0.01,0.03,0.02,0.06,0.03,0.09l-9.64,6.36l1.41,2.13l9.02-5.95c0.55,1.77,1.17,3.72,1.86,5.78l-9.59,6.54l1.44,2.11l9.02-6.15
		c0.8,2.25,1.68,4.55,2.64,6.79l-9.68,6.84l1.48,2.09l9.26-6.55c0.55,1.19,1.13,2.34,1.73,3.45l-9.35,9.52l1.82,1.79l8.81-8.97
		c1.05,2,2.18,4.37,3.3,6.88l-9.52,7.75l1.61,1.98l8.97-7.3c0.73,1.7,1.45,3.42,2.13,5.09l-10.57,9.11l1.67,1.93l9.91-8.54
		c0.73,1.83,1.4,3.55,1.99,5.07l-7.84,7.76l1.8,1.82l7.04-6.96c0.42,1.12,0.76,2.02,0.97,2.6c-2.48,2.88-4.78,6.19-5.55,9.19
		l-0.09,0.36l2.48,0.63l0.09-0.36c1.66-6.46,12.13-15.21,12.58-15.58l0.29-0.24l-1.62-1.97l-0.29,0.24
		c-0.23,0.19-2.97,2.46-5.95,5.6c-0.49-1.33-1.21-3.22-2.07-5.44l10.57-6.98l-1.41-2.13l-10.11,6.68c-0.79-2-1.67-4.16-2.58-6.34
		l9.81-2.62l-0.66-2.47l-10.16,2.71c-0.29-0.68-0.58-1.35-0.88-2.01v-3.63l9.19-1.21l-0.33-2.53l-8.86,1.16v-1.29
		c0-0.69,0.06-1.46,0.15-2.28l9.98-3.31l-0.8-2.43l-8.73,2.89c0.22-1.21,0.49-2.48,0.77-3.75l8.1-3.07l-0.91-2.39l-6.53,2.48
		c0.36-1.65,0.68-3.22,0.91-4.68l9.81-4.1l-0.99-2.36l-8.2,3.43c0.25-0.91,0.57-1.92,0.94-3.01l10.66-5.34l-1.14-2.28l-8.31,4.16
		c0.07-0.19,0.13-0.37,0.2-0.56c1.93-5.42,4.13-11.57,4.56-16.45l0.31-3.55c0.56-6.59,1.1-12.81,1.97-15.28
		c1.02-2.88,7.04-16.26,10.58-20.15c1.89-2.08,6.05-3.92,9.53-3.63c-0.41,0.75-0.87,1.7-1.22,2.72c-0.81,2.42-2.42,10.86-2.05,15.67
		c0.31,4.07,3.26,6.08,4.84,6.87c-0.02,0.21-0.05,0.43-0.06,0.64c-0.2,3.4,0.17,10.74,0.55,18.52l-6.84-0.7l-0.26,2.54l7.22,0.74
		c0.08,1.69,0.16,3.37,0.24,5.02l-9.14,0.04l0.01,2.56l9.24-0.04c0.07,1.82,0.13,3.58,0.18,5.22l-4.69-1.47l-0.76,2.44l5.5,1.72
		c0,0.42,0.01,0.84,0.01,1.24c0,10.97-1.62,21.93-4.04,27.28c-2.61,5.78-2.64,23.24-2.64,23.97
		C395.41,420.68,395.4,422.35,395.39,424.02z M291.67,285.7c-1.62,5.13-3.45,10.94-4.53,13.38c-0.29,0.65-0.63,1.36-1,2.11
		c-0.83,1.71-1.78,3.65-2.57,5.95c-2.27,1.34-12.42,7.58-14.34,13.16c-0.8,2.33-1.43,5.19-1.93,8.31l-7.48,1.07
		c1.42-2.81,3.09-5.48,4.8-8.2l0.09-0.14c0.4-0.64,0.81-1.29,1.22-1.94c1.54-2.48,15.18-24.39,19.98-30.79
		c2.23-2.97,4.94-5.26,6.98-6.75C292.5,283.07,292.09,284.35,291.67,285.7z M316.6,229.47c1.64,1.26,2.71,2.84,3.09,3.46
		c-0.22,4.15-0.8,10.9-1.5,12.54c-0.46,1.08-2.09,2.48-3.91,2.86c-1.51,0.31-2.99-0.1-4.3-1.17c0.03-0.36,0.05-0.72,0.08-1.07
		c0.23-3.24,0.42-5.81,0.47-7.09l0.06-1.51c0.13-3.29,0.25-6.13,1.08-7.94c0.24-0.52,0.66-0.85,1.3-1.01
		C314.08,228.25,315.51,228.62,316.6,229.47z M306.35,266.55c0,0.95-0.03,2.12-0.1,3.44l-6.2-0.91c1.62-4.74,3.44-10.09,4.57-12.45
		c0.72-1.5,1.6-3,2.43-4.33C306.69,257.75,306.35,263.38,306.35,266.55z M401.9,304.95c1.05,0.57,1.83,1.44,2.34,2.64
		c1.67,3.98,0,9.5-1.47,14.37c-0.51,1.69-1,3.32-1.36,4.86c-1.12-0.72-2.58-2.09-2.76-4.39c-0.34-4.43,1.19-12.46,1.92-14.67
		C400.95,306.66,401.49,305.64,401.9,304.95z M404.44,358.06l5.65,4.75c-1.97,2.24-3.8,4.3-5.4,6.11c0-0.32,0.01-0.65,0.01-0.97
		C404.71,365.15,404.6,361.73,404.44,358.06z M358.03,188.71c-3.88,4.58-8.26,5.26-10.51,5.26c0.88-2.43,2.23-5.76,3.79-9.01
		c4.09-8.52,5.88-8.78,5.89-8.78c0.45,0,0.85-0.01,1.25-0.02c0.91-0.02,1.63-0.03,2.27,0.1
		C361.28,177.97,362.55,183.37,358.03,188.71z M422.65,143.16c-2.86-2.76-3.23-6.16-3.27-7.22c-0.05-1.2,0.15-1.94,0.3-2.29
		c0.83,0.31,3.1,1.98,5.61,4.46C424.74,139.07,423.78,140.82,422.65,143.16z M421.53,145.57c-1.76,3.93-3.7,9.01-5.09,14.66
		c-1.05-3.92-2.4-9.4-2.9-13.64c-0.52-4.36,1.77-7.31,3.48-8.86C417.55,140.75,419.16,143.55,421.53,145.57z M444.43,131.74
		c0.72,0.54,0.87,1.39,0.87,2c0,0.92-0.2,2.57-0.46,4.65c-0.3,2.47-0.7,5.8-1,9.81c-3.98,0.15-5.46-2.44-6.39-6.38l-0.11-0.45
		c-0.33-1.33-0.24-6.03-0.08-9.18c0.45-0.18,0.9-0.34,1.37-0.48C442.06,130.71,443.67,131.18,444.43,131.74z M466.39,211.76l0,0.19
		c-0.01,0.45-0.02,0.91-0.03,1.38c-1.75-1.34-4.2-3.66-4.79-6.53c-0.78-3.76-1.03-6.87-1.11-8.23c0.18-0.09,0.36-0.18,0.54-0.26
		c0.85-0.36,1.36-0.37,1.57-0.25c1.85,1.05,3.87,6.81,3.87,10.99C466.43,209.86,466.41,210.78,466.39,211.76z"/>
	
		<rect x="403.59" y="258.37" transform="matrix(0.4723 -0.8815 0.8815 0.4723 -19.458 496.4568)" class="st0" width="2.56" height="12.22"/>
	
		<rect x="401.25" y="262.92" transform="matrix(0.4023 -0.9155 0.9155 0.4023 -6.4159 529.7832)" class="st0" width="2.56" height="13.77"/>
	
		<rect x="401.7" y="272.26" transform="matrix(0.3713 -0.9285 0.9285 0.3713 -2.9618 547.6956)" class="st0" width="2.56" height="7.56"/>
	<rect x="398.72" y="277.47" class="st0" width="2.38" height="2.56"/>
	
		<rect x="423.91" y="290.28" transform="matrix(0.4959 -0.8684 0.8684 0.4959 -38.7018 516.0963)" class="st0" width="2.56" height="2.21"/>
</g>
</svg>
