<?xml version="1.0" encoding="utf-8"?>
<!-- Generator: Adobe Illustrator 24.0.0, SVG Export Plug-In . SVG Version: 6.00 Build 0)  -->
<svg version="1.1" id="Layer_1" xmlns="http://www.w3.org/2000/svg" xmlns:xlink="http://www.w3.org/1999/xlink" x="0px" y="0px"
	 viewBox="0 0 720 720" style="enable-background:new 0 0 720 720;" xml:space="preserve">
<style type="text/css">
	.st0{fill:#A8381A;}
	.st1{fill:#E5DED6;}
	.st2{fill:#F4AF14;}
	.st3{fill:#304F43;}
	.st4{fill:#C16E00;}
	.st5{fill:#FFFFFF;}
</style>
<path class="st5" d="M380.66,317.56c0.18,0.08,18.14,8.46,27.36,11c7.68,2.11,16.6,6.86,21.92,9.69c1.25,0.67,2.33,1.24,3.14,1.64
	c2.15,1.07,6.66,2.82,11.45,4.66c4.57,1.76,9.29,3.59,12.61,5.07c6.21,2.78,13.75,6.39,16.93,9.57c0.74,0.74,1.98,2.14,3.54,3.9
	c4.59,5.18,12.26,13.84,17.47,17.13c7.25,4.59,15.46,9.79,18.59,12.92c0.68,0.68,1.51,1.58,2.46,2.63
	c3.12,3.41,7.83,8.57,10.88,9.25c3.83,0.85,6.21,0.09,8.05-0.76l0.29-0.13l0.3,0.09c0.02,0.01,2.23,0.65,4.71,0.32
	c1.36-0.18,2.63-0.93,3.22-1.91c0.36-0.6,0.44-1.2,0.22-1.8c-0.66-1.79-2.46-3.74-4.53-5.99c-0.31-0.34-0.62-0.68-0.94-1.02
	c-0.8-0.87-2.35-2.67-4.32-4.94c-4.1-4.73-9.72-11.21-12.57-14.07c-4.28-4.28-14.46-16.61-16.37-20.43
	c-1.88-3.76-7.29-11.42-12.94-15.94c-2.25-1.8-5.06-3.57-8.04-5.45c-4.77-3.01-9.7-6.12-13.08-9.79
	c-5.35-5.82-9.84-11.01-9.89-11.06l1.26-1.09c0.04,0.05,4.52,5.23,9.85,11.02c3.23,3.51,8.07,6.56,12.74,9.51
	c3.02,1.91,5.88,3.71,8.2,5.56c5.91,4.73,11.38,12.49,13.38,16.49c1.85,3.7,11.84,15.78,16.06,19.99c2.9,2.9,8.53,9.4,12.65,14.15
	c1.88,2.17,3.51,4.05,4.29,4.91c0.31,0.34,0.63,0.68,0.93,1.02c2.2,2.38,4.1,4.44,4.87,6.54c0.39,1.06,0.26,2.21-0.35,3.23
	c-0.86,1.42-2.56,2.45-4.43,2.7c-2.29,0.3-4.32-0.11-5.08-0.3c-2.05,0.92-4.71,1.67-8.83,0.75c-3.56-0.79-8.29-5.97-11.75-9.75
	c-0.94-1.03-1.75-1.92-2.41-2.57c-3-3-11.49-8.37-18.3-12.69c-5.4-3.42-13.18-12.19-17.82-17.44c-1.54-1.74-2.76-3.12-3.47-3.83
	c-3.02-3.02-10.83-6.71-16.44-9.23c-3.28-1.47-7.98-3.28-12.53-5.04c-4.82-1.86-9.37-3.62-11.59-4.73
	c-0.82-0.41-1.91-0.99-3.17-1.66c-5.27-2.8-14.08-7.49-21.58-9.56c-9.36-2.57-26.88-10.75-27.63-11.09L380.66,317.56z
	 M535.52,406.43c0.9,0.21,2.88,0.55,5.1,0.27c2.02-0.26,3.86-1.39,4.79-2.94c0.7-1.16,0.84-2.46,0.4-3.66
	c-0.81-2.2-2.74-4.29-4.97-6.71l-0.93-1.01c-0.77-0.85-2.38-2.7-4.29-4.9c-4.12-4.75-9.76-11.27-12.67-14.17
	c-4.19-4.19-14.13-16.2-15.96-19.86c-2.02-4.04-7.55-11.89-13.52-16.66c-2.34-1.87-5.21-3.68-8.24-5.59
	c-4.65-2.93-9.46-5.96-12.64-9.43c-4.88-5.3-9.03-10.08-9.84-11.02l-0.33-0.37l-2,1.75l0.33,0.38c0.47,0.55,4.78,5.52,9.89,11.07
	c3.42,3.72,8.38,6.85,13.18,9.88c2.97,1.87,5.77,3.64,8,5.42c5.59,4.47,10.94,12.05,12.8,15.77c1.92,3.85,12.16,16.25,16.46,20.55
	c2.85,2.85,8.45,9.32,12.55,14.04l0.15,0.18c1.9,2.19,3.4,3.92,4.18,4.77l0.94,1.02c2.04,2.21,3.81,4.12,4.43,5.82
	c0.17,0.45,0.11,0.9-0.17,1.36c-0.52,0.86-1.64,1.51-2.86,1.67c-2.38,0.31-4.48-0.3-4.5-0.31l-0.49-0.14l-0.46,0.21
	c-1.75,0.82-4.04,1.55-7.73,0.73c-2.9-0.64-7.54-5.73-10.64-9.13c-0.95-1.04-1.77-1.93-2.45-2.62c-3.17-3.17-11.41-8.39-18.68-12.99
	c-5.15-3.26-12.79-11.89-17.41-17.11c-1.54-1.74-2.76-3.11-3.51-3.86c-3.24-3.24-10.83-6.87-17.08-9.67
	c-3.33-1.49-8.05-3.31-12.63-5.08c-4.77-1.84-9.27-3.58-11.4-4.64c-0.8-0.4-1.86-0.97-3.12-1.64c-5.34-2.84-14.29-7.61-22.03-9.73
	c-9.19-2.53-27.1-10.88-27.28-10.97l-0.45-0.21l-1.13,2.41l0.45,0.21c0.74,0.35,18.29,8.53,27.7,11.12
	c7.45,2.05,16.24,6.72,21.48,9.52c1.27,0.67,2.36,1.26,3.19,1.67c2.24,1.12,6.8,2.88,11.67,4.76c4.53,1.75,9.21,3.56,12.47,5.02
	c5.57,2.5,13.32,6.16,16.29,9.13c0.71,0.71,1.98,2.14,3.45,3.81c4.66,5.26,12.46,14.07,17.93,17.53c6.8,4.3,15.25,9.66,18.22,12.62
	c0.65,0.65,1.46,1.54,2.39,2.56c3.5,3.83,8.29,9.08,12.01,9.9c1.36,0.3,2.57,0.43,3.65,0.43
	C532.49,407.57,534.2,407.01,535.52,406.43z M380.9,318.22c2.86,1.32,18.55,8.49,26.99,10.81c7.63,2.1,16.51,6.83,21.84,9.67
	c1.25,0.66,2.32,1.24,3.12,1.64c2.17,1.09,6.7,2.83,11.51,4.69c4.55,1.76,9.26,3.58,12.57,5.06c6.17,2.77,13.66,6.34,16.78,9.47
	c0.73,0.73,1.93,2.09,3.52,3.88c4.6,5.2,12.3,13.89,17.57,17.23c7.22,4.57,15.41,9.76,18.5,12.85c0.67,0.67,1.48,1.56,2.45,2.61
	c3.16,3.46,7.94,8.69,11.14,9.4c3.97,0.88,6.46,0.09,8.37-0.8l0.11-0.05l0.11,0.03c0.02,0.01,2.3,0.69,4.93,0.35
	c1.51-0.2,2.92-1.04,3.59-2.15c0.44-0.73,0.53-1.5,0.26-2.23c-0.7-1.89-2.52-3.86-4.64-6.16l-0.94-1.02
	c-0.77-0.85-2.27-2.57-4.16-4.75l-0.15-0.18c-4.1-4.74-9.72-11.22-12.59-14.09c-4.26-4.26-14.39-16.52-16.28-20.29
	c-1.9-3.8-7.36-11.54-13.07-16.1c-2.27-1.82-5.1-3.6-8.1-5.49c-4.74-2.99-9.64-6.08-12.97-9.7c-4.49-4.88-8.36-9.31-9.55-10.67
	l0.5-0.43c1.26,1.45,5.1,5.84,9.54,10.66c3.28,3.56,8.14,6.63,12.84,9.59c3.01,1.9,5.85,3.69,8.15,5.53
	c5.85,4.68,11.27,12.36,13.25,16.32c1.87,3.74,11.92,15.89,16.15,20.12c2.88,2.88,8.51,9.38,12.67,14.18
	c1.87,2.15,3.48,4.01,4.26,4.87l0.94,1.02c2.16,2.34,4.03,4.37,4.77,6.37c0.34,0.91,0.23,1.91-0.31,2.8
	c-0.78,1.29-2.34,2.24-4.07,2.46c-2.2,0.29-4.16-0.1-4.9-0.29l-0.17-0.04l-0.16,0.07c-1.93,0.87-4.45,1.63-8.52,0.72
	c-3.41-0.76-8.08-5.87-11.49-9.6c-0.94-1.03-1.76-1.92-2.42-2.59c-3.04-3.04-11.55-8.43-18.39-12.76
	c-5.35-3.38-13.09-12.12-17.71-17.34c-1.48-1.67-2.76-3.12-3.49-3.85c-3.08-3.08-10.94-6.8-16.59-9.33
	c-3.28-1.47-7.98-3.28-12.56-5.05c-4.81-1.86-9.35-3.61-11.54-4.71c-0.82-0.41-1.91-0.99-3.16-1.66c-5.28-2.81-14.13-7.52-21.69-9.6
	c-8.62-2.37-24.18-9.5-27.09-10.85L380.9,318.22z M476.23,301c0.97,0.85,1.8,1.58,2.44,2.17c0.44,0.4,1.01,0.95,1.71,1.6
	c4.37,4.09,13.46,12.61,20.78,18.3c7,5.44,8.95,11.13,10.38,15.29c0.26,0.75,0.5,1.45,0.75,2.1c0.93,2.39,3.55,7.42,5.86,11.86
	c1.84,3.53,3.57,6.86,4.13,8.24c0.54,1.33,1.8,3.89,3.26,6.85c2.05,4.17,4.37,8.9,5.19,11.21c1.01,2.87,1.65,6.24,1.91,7.79
	c-2.56,0.33-4,1.73-4.78,2.91c-1.38,2.09-1.48,4.73-0.87,6.25c0.97,2.42,7.1,9.23,7.79,10l1.23-1.11c-1.84-2.03-6.76-7.69-7.48-9.5
	c-0.44-1.11-0.3-3.18,0.72-4.72c0.93-1.41,2.45-2.19,4.37-2.23l0.93-0.02l-0.13-0.92c-0.03-0.2-0.7-4.96-2.12-8.99
	c-0.85-2.4-3.19-7.18-5.27-11.39c-1.38-2.81-2.69-5.47-3.21-6.74c-0.59-1.45-2.26-4.66-4.2-8.38c-2.29-4.4-4.89-9.39-5.78-11.7
	c-0.24-0.62-0.48-1.31-0.73-2.04c-1.5-4.35-3.54-10.31-10.93-16.06c-7.27-5.65-16.32-14.13-20.67-18.2c-0.7-0.66-1.28-1.2-1.72-1.61
	c-0.65-0.61-1.5-1.35-2.48-2.2c-3.32-2.91-8.88-7.78-9.38-9.95l-1.62,0.37C466.9,292.67,471.15,296.56,476.23,301z M536.72,404.5
	l-0.33-0.37c-2.53-2.79-6.77-7.8-7.39-9.35c-0.39-0.97-0.24-2.88,0.67-4.26c0.84-1.27,2.21-1.96,3.97-2.01l1.49-0.04l-0.21-1.48
	c-0.07-0.51-0.75-5.13-2.15-9.09c-0.86-2.44-3.21-7.22-5.29-11.44c-1.38-2.8-2.68-5.45-3.19-6.71c-0.6-1.48-2.28-4.7-4.22-8.44
	c-2.28-4.39-4.87-9.36-5.75-11.63c-0.24-0.61-0.47-1.29-0.72-2.02c-1.52-4.41-3.59-10.45-11.1-16.29
	c-7.24-5.63-16.28-14.1-20.63-18.18c-0.7-0.66-1.28-1.2-1.72-1.61c-0.64-0.59-1.46-1.32-2.49-2.21c-3.06-2.68-8.76-7.67-9.22-9.68
	l-0.11-0.49l-2.59,0.6l0.11,0.49c0.61,2.64,4.73,6.42,10.06,11.09c0.96,0.84,1.8,1.57,2.43,2.16c0.41,0.38,0.94,0.88,1.58,1.48
	l0.14,0.13c4.37,4.09,13.47,12.62,20.81,18.32c6.88,5.35,8.81,10.96,10.23,15.1c0.25,0.74,0.49,1.44,0.74,2.08
	c0.94,2.41,3.56,7.45,5.89,11.93c1.83,3.51,3.55,6.83,4.1,8.18c0.54,1.34,1.8,3.89,3.28,6.89c2.04,4.15,4.36,8.86,5.16,11.14
	c0.89,2.53,1.49,5.44,1.8,7.21c-2.46,0.47-3.86,1.9-4.62,3.04c-1.47,2.23-1.58,5.07-0.92,6.71c0.97,2.43,6.74,8.88,7.88,10.15
	l0.34,0.37L536.72,404.5z M467.62,290.4c0.96,2.24,5.15,6.03,9.45,9.8c0.94,0.83,1.76,1.54,2.4,2.13c0.44,0.4,1.02,0.95,1.73,1.61
	c4.35,4.08,13.42,12.56,20.69,18.23c7.27,5.66,9.29,11.54,10.77,15.83c0.25,0.74,0.49,1.43,0.73,2.06
	c0.91,2.33,3.51,7.33,5.81,11.75c1.93,3.71,3.6,6.91,4.18,8.34c0.53,1.29,1.84,3.96,3.22,6.78c2.06,4.2,4.4,8.95,5.24,11.33
	c1.36,3.86,2.03,8.39,2.1,8.89l0.05,0.37l-0.37,0.01c-2.1,0.05-3.75,0.9-4.78,2.46c-1.15,1.74-1.25,3.97-0.76,5.18
	c0.79,1.97,5.88,7.75,7.24,9.28l-0.49,0.45c-1.47-1.64-6.52-7.38-7.36-9.48c-0.56-1.4-0.46-3.84,0.83-5.79
	c0.7-1.05,2.03-2.37,4.43-2.69l0.51-0.07l-0.09-0.51c-0.29-1.72-0.92-5.02-1.93-7.88c-0.83-2.34-3.15-7.07-5.23-11.3
	c-1.44-2.94-2.69-5.47-3.22-6.78c-0.57-1.4-2.3-4.73-4.16-8.3c-2.3-4.42-4.91-9.44-5.83-11.79c-0.25-0.63-0.48-1.32-0.74-2.08
	c-1.45-4.21-3.43-9.98-10.55-15.52c-7.3-5.68-16.38-14.18-20.75-18.27l-0.13-0.12c-0.64-0.6-1.18-1.1-1.59-1.48
	c-0.64-0.59-1.48-1.33-2.45-2.18c-4.51-3.95-8.63-7.7-9.59-10.08L467.62,290.4z M488.73,288.83c3.19,3.13,6.2,6.08,8.09,8.28
	c5.16,6.02,10.88,12.87,13.4,18.04c2.3,4.71-0.98,16.81-1.02,16.93l1.6,0.44c0.14-0.52,3.48-12.83,0.91-18.1
	c-2.61-5.34-8.4-12.29-13.63-18.39c-1.93-2.25-4.97-5.23-8.18-8.39c-5.8-5.69-13.03-12.78-13.6-15.79l-1.63,0.31
	C475.33,275.69,482.14,282.37,488.73,288.83z M511.28,332.66c0.15-0.53,3.53-13.01,0.88-18.46c-2.63-5.39-8.45-12.37-13.7-18.49
	c-1.94-2.26-4.96-5.23-8.21-8.42c-5.45-5.35-12.92-12.67-13.46-15.52l-0.09-0.49l-2.62,0.5l0.09,0.49
	c0.7,3.68,7.57,10.41,14.21,16.92c3.18,3.12,6.18,6.06,8.06,8.25c5.14,6,10.83,12.82,13.33,17.93c2.21,4.52-1.02,16.46-1.05,16.58
	l-0.13,0.48l2.57,0.71L511.28,332.66z M510.66,314.93c-2.55-5.22-8.29-12.1-13.46-18.14c-1.9-2.22-4.92-5.18-8.12-8.31
	c-5.94-5.83-12.64-12.4-13.8-15.91l0.65-0.12c1.14,3.34,7.75,9.82,13.66,15.61c3.19,3.13,6.2,6.08,8.1,8.3
	c5.21,6.07,10.98,13,13.56,18.28c2.25,4.6-0.2,14.88-0.81,17.27l-0.64-0.18C510.41,329.37,512.79,319.29,510.66,314.93z
	 M420.33,396.16c0.03-0.02,3.49-1.74,6.32,0.68c3.13,2.68,7.41,8.97,8.37,10.9c0.87,1.74,1.21,3.69,1.21,3.71l1.64-0.27
	c-0.01-0.09-0.38-2.21-1.36-4.18c-1.04-2.08-5.44-8.56-8.78-11.42c-3.67-3.15-7.98-0.99-8.16-0.9L420.33,396.16z M438.44,411.59
	l-0.08-0.49c0-0.02-0.38-2.26-1.41-4.32c-1.05-2.11-5.51-8.67-8.9-11.58c-3.92-3.36-8.52-1.07-8.71-0.97l-0.45,0.23l1.22,2.36
	l0.44-0.22c0.13-0.07,3.22-1.57,5.77,0.62c3.08,2.64,7.3,8.84,8.25,10.75c0.79,1.58,1.13,3.37,1.17,3.59l0.1,0.47L438.44,411.59z
	 M420.56,395.52l-0.3-0.59c1.18-0.46,4.37-1.35,7.15,1.04c3.29,2.82,7.63,9.21,8.66,11.26c0.68,1.37,1.06,2.81,1.22,3.55l-0.65,0.11
	c-0.16-0.73-0.52-2.09-1.15-3.36c-0.98-1.96-5.32-8.34-8.5-11.06c-1.27-1.09-2.66-1.41-3.85-1.41
	C422.02,395.05,421.09,395.32,420.56,395.52z M406.27,382.46l5.7-4.64l-1.05-1.29l-5.7,4.64L406.27,382.46z M412.67,377.89
	l-1.68-2.06l-6.47,5.27l1.68,2.06L412.67,377.89z M410.85,377.23l0.42,0.51l-4.92,4.01l-0.42-0.51L410.85,377.23z M400.08,376.61
	l1.18,1.17l6.54-6.6l-1.18-1.17L400.08,376.61z M408.51,371.18l-1.89-1.87l-7.25,7.31l1.89,1.87L408.51,371.18z M406.63,370.72
	l0.47,0.47l-5.84,5.89l-0.47-0.47L406.63,370.72z M395.73,372.62l4.93-2.58l-0.77-1.47l-4.93,2.58L395.73,372.62z M401.34,370.25
	l-1.23-2.36l-5.82,3.05l1.24,2.36L401.34,370.25z M399.69,369.24l0.31,0.59l-4.05,2.12l-0.31-0.59L399.69,369.24z M360.33,329.02
	l1.61,0.42l2.61-9.87l-1.61-0.42L360.33,329.02z M365.16,319.22l-2.57-0.68l-2.86,10.83l2.57,0.68L365.16,319.22z M363.29,319.77
	l0.64,0.17l-2.35,8.9l-0.64-0.17L363.29,319.77z M354.57,323.04l1.58,0.51l4.5-13.91l-1.58-0.51L354.57,323.04z M361.28,309.31
	l-2.53-0.82l-4.81,14.86l2.53,0.82L361.28,309.31z M359.39,309.75l0.63,0.2l-4.19,12.96l-0.63-0.2L359.39,309.75z M348.95,316.17
	l1.6,0.44l4.82-17.47l-1.6-0.44L348.95,316.17z M355.99,298.79l-2.57-0.71l-5.09,18.44l2.57,0.71L355.99,298.79z M354.12,299.32
	l0.64,0.18L350.21,316l-0.64-0.18L354.12,299.32z M343.38,307.61l1.57,0.53l5.48-16.24l-1.57-0.53L343.38,307.61z M351.06,291.59
	l-2.52-0.85l-5.8,17.19l2.52,0.85L351.06,291.59z M349.17,292.01l0.63,0.21l-5.16,15.29l-0.63-0.21L349.17,292.01z M337.18,299.08
	l1.56,0.56l4.86-13.59l-1.56-0.56L337.18,299.08z M344.25,285.74l-2.51-0.9l-5.2,14.54l2.51,0.9L344.25,285.74z M342.35,286.12
	l0.62,0.22L338.44,299l-0.62-0.22L342.35,286.12z M331.37,291.52l1.57,0.53l4.21-12.48l-1.57-0.53L331.37,291.52z M337.79,279.25
	l-2.52-0.85l-4.53,13.43l2.52,0.85L337.79,279.25z M335.89,279.67l0.63,0.21l-3.89,11.54l-0.63-0.21L335.89,279.67z M326.03,284.96
	l1.58,0.51l3.79-11.67l-1.58-0.51L326.03,284.96z M332.03,273.48l-2.53-0.82l-4.1,12.62l2.53,0.82L332.03,273.48z M330.14,273.92
	l0.63,0.2l-3.48,10.72l-0.63-0.2L330.14,273.92z M320.44,279.11l1.59,0.47l3.15-10.62l-1.59-0.47L320.44,279.11z M325.8,268.63
	l-2.55-0.76l-3.43,11.58l2.55,0.76L325.8,268.63z M323.92,269.11l0.64,0.19l-2.86,9.66l-0.63-0.19L323.92,269.11z M314.49,274.22
	l1.6,0.45l3.57-12.65l-1.6-0.45L314.49,274.22z M320.27,261.67l-2.56-0.72l-3.84,13.61l2.56,0.72L320.27,261.67z M318.4,262.19
	l0.64,0.18l-3.29,11.69l-0.64-0.18L318.4,262.19z M307.68,268.84l1.61,0.41l3.32-12.89l-1.61-0.41L307.68,268.84z M313.22,256
	l-2.58-0.66l-3.57,13.86l2.58,0.66L313.22,256z M311.36,256.56l0.64,0.17l-3.07,11.92l-0.64-0.17L311.36,256.56z M301.02,263.61
	l1.61,0.42l3.28-12.72l-1.61-0.42L301.02,263.61z M306.52,250.95l-2.58-0.67l-3.53,13.69l2.58,0.66L306.52,250.95z M304.67,251.5
	l0.64,0.17l-3.03,11.75l-0.64-0.17L304.67,251.5z M294.02,258.14l1.62,0.37l2.88-12.51l-1.62-0.37L294.02,258.14z M299.12,245.63
	l-2.59-0.6l-3.11,13.48l2.59,0.6L299.12,245.63z M297.27,246.23l0.64,0.15l-2.66,11.53l-0.64-0.15L297.27,246.23z M288.63,253.97
	l1.65,0.18l1.32-12.13l-1.65-0.18L288.63,253.97z M292.15,241.58l-2.65-0.29l-1.42,13.12l2.65,0.29L292.15,241.58z M290.39,242.4
	l0.66,0.07l-1.21,11.13l-0.66-0.07L290.39,242.4z M280.99,247.67l1.66,0.13l1.08-13.67l-1.66-0.13L280.99,247.67z M284.27,233.67
	l-2.65-0.21l-1.16,14.66l2.65,0.21L284.27,233.67z M282.54,234.54l0.66,0.05l-1,12.67l-0.66-0.05L282.54,234.54z M379.36,327.51
	l1.65,0.16c0.05-0.55,1.28-13.62-2.23-19.54l-1.43,0.85C380.59,314.44,379.38,327.38,379.36,327.51z M381.51,327.72
	c0.05-0.56,1.31-13.75-2.29-19.84l-0.25-0.43l-2.29,1.36l0.25,0.43c3.15,5.32,1.95,18.1,1.94,18.23l-0.05,0.5l2.65,0.26
	L381.51,327.72z M378.03,309.16l0.57-0.34c2.78,5.33,2.15,15.89,1.96,18.3l-0.66-0.06C380.09,324.67,380.7,314.31,378.03,309.16z
	 M373.6,314.59l1.66-0.09l-0.47-9.16l-1.66,0.09L373.6,314.59z M375.79,314.98l-0.52-10.16l-2.66,0.14l0.52,10.16L375.79,314.98z
	 M374.32,305.87l0.42,8.17l-0.66,0.03l-0.42-8.17L374.32,305.87z M384.55,333.53l1.63,0.33l2.46-12.01l-1.63-0.33L384.55,333.53z
	 M389.22,321.47l-2.61-0.53l-2.66,12.99l2.61,0.53L389.22,321.47z M387.39,322.11l0.65,0.13l-2.26,11.03l-0.65-0.13L387.39,322.11z
	 M390.28,333.76l1.44,0.83l5.18-8.96l-1.44-0.83L390.28,333.76z M397.58,325.45l-2.3-1.33l-5.68,9.82l2.3,1.33L397.58,325.45z
	 M395.64,325.48l0.57,0.33l-4.68,8.09l-0.57-0.33L395.64,325.48z M396.22,336.49l1.32,1.01l5.61-7.31l-1.32-1.01L396.22,336.49z
	 M403.85,330.09l-2.11-1.62l-6.22,8.1l2.11,1.62L403.85,330.09z M401.92,329.88l0.53,0.4l-5,6.52l-0.52-0.4L401.92,329.88z
	 M400.95,342.38l1.48,0.75l4.52-9l-1.48-0.75L400.95,342.38z M407.62,333.9l-2.38-1.2l-4.97,9.89l2.38,1.19L407.62,333.9z
	 M405.69,334.05l0.59,0.3l-4.07,8.1l-0.59-0.3L405.69,334.05z M405.52,346.05l1.52,0.68l3.39-7.53l-1.52-0.68L405.52,346.05z
	 M411.08,338.95l-2.43-1.09l-3.8,8.45l2.43,1.09L411.08,338.95z M409.15,339.18l0.6,0.27l-2.98,6.62l-0.6-0.27L409.15,339.18z
	 M409.03,353.83l1.54,0.63l3.76-9.16l-1.54-0.63L409.03,353.83z M414.98,345.02l-2.46-1.01l-4.14,10.09l2.46,1.01L414.98,345.02z
	 M413.06,345.32l0.61,0.25l-3.38,8.24l-0.61-0.25L413.06,345.32z M412.18,360.11l1.58,0.52l3.51-10.55l-1.58-0.52L412.18,360.11z
	 M417.9,349.77l-2.53-0.84l-3.82,11.5l2.53,0.84L417.9,349.77z M416,350.2l0.63,0.21l-3.19,9.6l-0.63-0.21L416,350.2z
	 M384.12,320.42l1.66,0.01l0.06-10.57l-1.66-0.01L384.12,320.42z M386.34,309.36l-2.66-0.01l-0.06,11.57l2.66,0.02L386.34,309.36z
	 M384.67,310.35l0.66,0l-0.05,9.57l-0.66,0L384.67,310.35z M390.96,323.15l1.66,0.12l0.97-13.13l-1.66-0.12L390.96,323.15z
	 M394.13,309.68l-2.65-0.2l-1.05,14.12l2.65,0.2L394.13,309.68z M392.4,310.56l0.66,0.05l-0.9,12.13l-0.66-0.05L392.4,310.56z
	 M281.86,194.34c-3.36,5.46-7.44,14.09-7.77,24.19c-0.6,18.16,1.64,24.09,5.98,28.68c2.24,2.36,11.65,9.74,21.61,17.55
	c8.69,6.81,17.68,13.86,20.36,16.43c5.39,5.17,21.77,26.86,25.82,33.78c3.02,5.16,8.15,10.3,12.27,14.44
	c1.44,1.44,2.8,2.81,3.93,4.03l0.02,0.02c0.12,0.12,11.53,11.57,13.44,16.63c2,5.3,8.26,13.77,15.58,21.09
	c3.34,3.34,8.28,7.81,13.06,12.14c5.28,4.78,10.27,9.3,12.29,11.56c1.32,1.48,2.54,3.75,3.83,6.16c2.37,4.43,5.06,9.44,9.4,11.21
	c2.33,0.95,4.68,0.66,6.78-0.83c3.44-2.43,5.33-7.34,5.17-10.67c-0.25-5.18-5.13-18.06-6.43-20.76c-1.15-2.4-4.76-6.69-8.93-11.65
	c-0.69-0.83-1.4-1.66-2.11-2.51c-2.72-3.26-5.24-8.56-7.46-13.24c-1.66-3.5-3.1-6.53-4.38-8.23c-1.13-1.5-2.33-3.37-3.59-5.35
	c-1.95-3.05-3.96-6.21-5.88-8.13l-5.24-5.24l1.13-11.12l-1.65-0.17l-1.22,11.91l5.8,5.8c1.79,1.79,3.76,4.87,5.66,7.85
	c1.28,2.01,2.49,3.91,3.67,5.46c1.18,1.56,2.65,4.66,4.21,7.93c2.26,4.77,4.83,10.18,7.69,13.6c0.71,0.84,1.41,1.68,2.11,2.51
	c3.93,4.67,7.65,9.09,8.71,11.3c1.22,2.55,6.03,15.25,6.26,20.13c0.14,2.84-1.63,7.23-4.47,9.24c-1.65,1.16-3.39,1.38-5.2,0.65
	c-3.79-1.55-6.33-6.28-8.57-10.46c-1.33-2.49-2.6-4.85-4.05-6.48c-2.08-2.33-7.1-6.87-12.41-11.69c-4.76-4.31-9.69-8.77-13-12.08
	c-7.17-7.17-13.28-15.41-15.2-20.5c-2.02-5.36-13.19-16.58-13.81-17.2c-1.15-1.25-2.52-2.62-3.96-4.07
	c-4.27-4.28-9.1-9.14-12.02-14.11c-4.2-7.16-20.51-28.77-26.11-34.14c-2.74-2.63-11.36-9.38-20.48-16.54
	c-9.48-7.43-19.28-15.11-21.43-17.39c-4.04-4.26-6.11-9.9-5.53-27.48c0.32-9.74,4.27-18.08,7.53-23.37
	c4.28-6.96,9.23-11.75,12.43-13.92c5.88-3.98,24.78,4.24,31,6.94c1.17,0.51,2.01,0.87,2.45,1.03c1.1,0.4,4.31,1.95,8.37,3.91
	c6.34,3.06,15.02,7.26,21.21,9.71c2.68,1.06,6.38,2.48,10.67,4.12c11.28,4.32,26.74,10.25,31.18,12.64
	c5.88,3.17,30.46,14.12,42.88,16.65c6.06,1.24,11.64,3.14,16.14,5.5c4.68,2.46,8.09,5.37,9.86,8.43
	c2.21,3.82,12.18,14.26,21.83,24.36c7.38,7.73,14.35,15.03,16.4,17.89c4.11,5.76,5.46,11.68,6.88,17.95
	c0.17,0.73,0.33,1.47,0.51,2.2c0.61,2.62,6,25.78,7.04,33.06c0.9,6.31-0.8,12.21-0.82,12.27l1.59,0.47
	c0.07-0.25,1.82-6.3,0.87-12.98c-1.05-7.36-6.45-30.58-7.06-33.2c-0.17-0.73-0.34-1.46-0.5-2.19c-1.46-6.44-2.84-12.52-7.15-18.55
	c-2.11-2.96-9.13-10.3-16.55-18.07c-9.13-9.56-19.48-20.39-21.59-24.04c-3.78-6.54-13.92-12.04-27.11-14.73
	c-12.27-2.5-36.59-13.35-42.42-16.48c-4.54-2.44-19.42-8.15-31.38-12.73c-4.28-1.64-7.98-3.06-10.66-4.12
	c-6.14-2.43-14.79-6.61-21.1-9.66c-4.1-1.98-7.35-3.55-8.53-3.98c-0.39-0.14-1.25-0.52-2.35-0.99
	c-12.09-5.25-26.71-10.77-32.59-6.79c-1.37,0.93-3.03,2.3-4.83,4.1C287.35,186.62,284.48,190.09,281.86,194.34z M438.76,411.83
	c3.58-2.53,5.54-7.63,5.38-11.1c-0.25-5.24-5.17-18.23-6.47-20.96c-1.17-2.46-4.79-6.76-9-11.76c-0.7-0.82-1.4-1.66-2.11-2.51
	c-2.69-3.21-5.19-8.48-7.4-13.14c-1.67-3.52-3.12-6.57-4.43-8.31c-1.12-1.48-2.3-3.33-3.57-5.32c-1.96-3.08-3.99-6.26-5.95-8.21
	l-5.08-5.08l1.16-11.38l-2.65-0.27l-1.29,12.64l5.97,5.97c1.75,1.75,3.7,4.8,5.61,7.79c1.28,2.01,2.49,3.9,3.67,5.46
	c1.15,1.52,2.61,4.59,4.15,7.85c2.28,4.8,4.85,10.24,7.75,13.7c0.71,0.85,1.41,1.69,2.13,2.54c3.9,4.63,7.58,9.01,8.61,11.16
	c1.21,2.53,5.99,15.12,6.22,19.93c0.13,2.71-1.55,6.89-4.26,8.8c-1.5,1.06-3.08,1.26-4.72,0.59c-3.62-1.48-6.12-6.13-8.31-10.23
	c-1.35-2.52-2.62-4.9-4.12-6.58c-2.09-2.35-7.12-6.89-12.5-11.77c-4.74-4.29-9.64-8.73-12.93-12.02
	c-7.12-7.12-13.18-15.29-15.09-20.33c-2.03-5.37-12.71-16.17-13.91-17.37c-1.17-1.26-2.53-2.63-3.98-4.08
	c-4.24-4.26-9.05-9.09-11.94-14.01c-4.21-7.18-20.58-28.86-26.19-34.24c-2.76-2.64-11.38-9.4-20.52-16.57
	c-9.46-7.42-19.25-15.09-21.38-17.34c-3.94-4.16-5.97-9.72-5.39-27.12c0.32-9.62,4.23-17.89,7.45-23.12
	c4.24-6.89,9.13-11.63,12.29-13.77c3.75-2.54,14.02-0.19,30.55,7c1.16,0.5,1.99,0.86,2.44,1.03c1.07,0.39,4.25,1.92,8.32,3.89
	c6.34,3.07,15.03,7.27,21.25,9.72c2.65,1.05,6.29,2.44,10.5,4.06l0.2,0.08c11.26,4.32,26.69,10.23,31.1,12.6
	c5.9,3.18,30.55,14.16,43.02,16.7c6.01,1.23,11.55,3.11,16.01,5.46c4.6,2.42,7.94,5.27,9.66,8.24c2.24,3.87,12.24,14.33,21.91,24.46
	c7.37,7.71,14.32,14.99,16.34,17.82c4.05,5.68,5.39,11.55,6.8,17.77l0.51,2.21c0.61,2.62,5.99,25.77,7.03,33.02
	c0.87,6.1-0.73,11.82-0.8,12.06l-0.14,0.48l2.55,0.75l0.14-0.48c0.08-0.26,1.85-6.43,0.88-13.19c-1.06-7.39-6.46-30.62-7.07-33.25
	c-0.17-0.73-0.34-1.46-0.5-2.19c-1.47-6.49-2.86-12.61-7.23-18.72c-2.14-2.99-9.16-10.34-16.61-18.14
	c-9.11-9.53-19.43-20.34-21.51-23.94c-3.85-6.66-14.11-12.25-27.44-14.97c-12.22-2.49-36.47-13.3-42.29-16.44
	c-4.57-2.46-19.47-8.17-31.44-12.75c-4.28-1.64-7.98-3.06-10.65-4.11c-6.12-2.42-14.76-6.6-21.13-9.68
	c-4.08-1.97-7.31-3.53-8.52-3.97c-0.38-0.14-1.28-0.53-2.32-0.98c-12.2-5.3-26.99-10.86-33.07-6.74c-1.5,1.02-3.2,2.46-4.9,4.16l0,0
	c-2.07,2.07-5.17,5.56-8.16,10.42c-3.39,5.51-7.51,14.22-7.85,24.43c-0.61,18.34,1.68,24.35,6.12,29.04
	c2.27,2.39,11.69,9.78,21.67,17.6c8.68,6.81,17.66,13.84,20.32,16.4c5.37,5.15,21.7,26.77,25.74,33.67
	c3.06,5.21,8.21,10.38,12.38,14.57c1.42,1.43,2.77,2.78,3.92,4.02c0.11,0.11,11.45,11.49,13.33,16.45
	c2.02,5.36,8.33,13.9,15.7,21.27c3.36,3.36,8.3,7.83,13.12,12.2c5.25,4.75,10.21,9.25,12.21,11.48c1.29,1.44,2.49,3.69,3.76,6.06
	c2.41,4.5,5.14,9.6,9.66,11.44c0.96,0.39,1.93,0.59,2.88,0.59C435.9,413.3,437.38,412.81,438.76,411.83z M290.3,184.37
	c1.66-1.66,3.3-3.05,4.75-4.04c5.68-3.85,20.14,1.63,32.11,6.83c1.1,0.48,1.97,0.86,2.38,1c1.15,0.42,4.36,1.97,8.48,3.96
	c6.32,3.06,14.98,7.24,21.13,9.67c2.67,1.06,6.38,2.48,10.66,4.12c11.94,4.58,26.81,10.27,31.32,12.7
	c5.85,3.15,30.25,14.02,42.56,16.53c13.05,2.66,23.06,8.08,26.77,14.49c2.14,3.7,12.51,14.55,21.66,24.14
	c7.41,7.76,14.41,15.08,16.5,18.02c4.25,5.95,5.62,11.98,7.07,18.36c0.17,0.73,0.33,1.46,0.5,2.2c0.61,2.62,6.01,25.82,7.05,33.16
	c0.79,5.56-0.32,10.71-0.72,12.28l-0.64-0.19c0.39-1.56,1.47-6.64,0.7-12c-1.04-7.29-6.43-30.48-7.04-33.1l-0.51-2.2
	c-1.44-6.32-2.79-12.29-6.96-18.13c-2.07-2.89-9.04-10.2-16.45-17.94c-9.62-10.08-19.58-20.49-21.76-24.26
	c-1.82-3.14-5.3-6.12-10.06-8.63c-4.54-2.39-10.17-4.31-16.27-5.55c-12.38-2.52-36.88-13.44-42.74-16.6
	c-4.47-2.41-19.93-8.33-31.24-12.66l-0.18-0.07c-4.21-1.61-7.85-3.01-10.49-4.05c-6.18-2.44-14.85-6.64-21.22-9.72
	c-4.05-1.96-7.25-3.51-8.38-3.91c-0.42-0.15-1.24-0.51-2.42-1.02c-6.27-2.73-25.37-11.03-31.48-6.89
	c-3.24,2.2-8.25,7.05-12.58,14.07c-3.29,5.34-7.28,13.77-7.6,23.62c-0.59,17.76,1.54,23.49,5.67,27.84c2.18,2.3,12,10,21.51,17.45
	c9.11,7.14,17.71,13.88,20.43,16.49c5.58,5.34,21.84,26.89,26.02,34.03c2.95,5.03,7.81,9.91,12.09,14.21
	c1.44,1.44,2.8,2.81,3.96,4.06c0.48,0.48,11.71,11.76,13.69,17.03c1.95,5.16,8.1,13.47,15.32,20.68c3.31,3.31,8.22,7.75,13.04,12.12
	c5.3,4.79,10.3,9.32,12.36,11.63c1.42,1.59,2.66,3.92,3.98,6.38c2.28,4.25,4.86,9.07,8.82,10.69c1.97,0.8,3.88,0.57,5.67-0.7
	c2.97-2.11,4.82-6.7,4.68-9.67c-0.23-4.93-5.08-17.75-6.31-20.32c-1.08-2.26-4.81-6.69-8.77-11.4c-0.7-0.83-1.4-1.67-2.11-2.51
	c-2.82-3.37-5.37-8.75-7.62-13.49c-1.57-3.3-3.04-6.42-4.26-8.02c-1.16-1.53-2.36-3.41-3.65-5.44c-1.91-3-3.89-6.1-5.72-7.92
	l-5.63-5.63l1.14-11.17l0.66,0.07l-1.11,10.86l5.41,5.41c1.88,1.88,3.88,5.01,5.82,8.06c1.27,1.98,2.46,3.86,3.61,5.37
	c1.25,1.66,2.68,4.66,4.33,8.14c2.23,4.71,4.76,10.04,7.53,13.35c0.71,0.84,1.41,1.68,2.12,2.53c4.15,4.93,7.73,9.18,8.85,11.53
	c1.28,2.68,6.13,15.46,6.38,20.57c0.15,3.2-1.66,7.91-4.96,10.24c-1.96,1.39-4.14,1.66-6.31,0.77c-4.18-1.7-6.82-6.63-9.15-10.99
	c-1.3-2.43-2.53-4.72-3.89-6.25c-2.03-2.28-7.01-6.79-12.32-11.6c-4.77-4.32-9.7-8.78-13.04-12.12
	c-7.27-7.27-13.49-15.68-15.47-20.91c-1.95-5.16-13.44-16.69-13.56-16.81c-1.13-1.22-2.48-2.58-3.95-4.05
	c-4.1-4.12-9.2-9.24-12.19-14.34c-4.07-6.93-20.5-28.7-25.91-33.88c-2.7-2.59-11.7-9.64-20.4-16.46
	c-9.95-7.8-19.34-15.16-21.56-17.5c-4.25-4.49-6.44-10.33-5.85-28.32c0.33-9.99,4.37-18.53,7.7-23.94
	C285.23,189.83,288.27,186.4,290.3,184.37L290.3,184.37z M406.97,329.36l1.66-0.02l-0.12-12.81l-1.66,0.02L406.97,329.36z
	 M409.14,329.84l-0.13-13.81l-2.66,0.02l0.13,13.81L409.14,329.84z M408.02,317.04l0.11,11.81l-0.66,0.01l-0.11-11.81L408.02,317.04
	z M412.44,331.04l1.64,0.28l1.95-11.35l-1.64-0.28L412.44,331.04z M416.6,319.57l-2.62-0.45l-2.12,12.33l2.62,0.45L416.6,319.57z
	 M414.79,320.27l0.65,0.11l-1.78,10.36l-0.65-0.11L414.79,320.27z M420.76,334.71l1.63,0.31l2.09-11.04l-1.63-0.31L420.76,334.71z
	 M425.06,323.59l-2.62-0.49l-2.27,12.02l2.62,0.49L425.06,323.59z M423.25,324.26l0.65,0.12l-1.9,10.05l-0.65-0.12L423.25,324.26z
	 M427.89,338.36l1.63,0.33l2.24-10.94l-1.63-0.33L427.89,338.36z M432.35,327.37l-2.61-0.53l-2.44,11.92l2.61,0.53L432.35,327.37z
	 M430.52,328.02l0.65,0.13l-2.04,9.96l-0.65-0.13L430.52,328.02z M435.71,342.25l1.66,0.13l0.87-11.31l-1.66-0.13L435.71,342.25z
	 M438.78,330.6l-2.65-0.2l-0.95,12.31l2.65,0.21L438.78,330.6z M437.04,331.47l0.66,0.05l-0.79,10.32l-0.66-0.05L437.04,331.47z
	 M443.35,345.17l1.64,0.27l1.82-10.9l-1.64-0.27L443.35,345.17z M447.38,334.13l-2.62-0.44l-1.98,11.88l2.63,0.44L447.38,334.13z
	 M445.58,334.85l0.65,0.11l-1.66,9.91l-0.65-0.11L445.58,334.85z M450.74,347.97l1.61,0.43l1.73-6.49l-1.61-0.43L450.74,347.97z
	 M454.69,341.55l-2.57-0.69l-1.99,7.46l2.57,0.69L454.69,341.55z M452.82,342.09l0.64,0.17l-1.47,5.53l-0.64-0.17L452.82,342.09z
	 M432.31,294.11l1.51,0.69l2-4.35l-1.51-0.69L432.31,294.11z M436.48,290.21l-2.42-1.11l-2.42,5.26l2.42,1.11L436.48,290.21z
	 M434.55,290.43l0.6,0.28l-1.58,3.44l-0.6-0.28L434.55,290.43z M437.6,301.04l1.51,0.7l4.11-8.81l-1.51-0.7L437.6,301.04z
	 M443.88,292.69l-2.41-1.13l-4.54,9.72l2.41,1.13L443.88,292.69z M441.95,292.89l0.6,0.28l-3.69,7.91l-0.6-0.28L441.95,292.89z
	 M444.41,302.91l1.5,0.72l3.64-7.64l-1.5-0.72L444.41,302.91z M450.22,295.75l-2.4-1.15l-4.07,8.54l2.4,1.15L450.22,295.75z
	 M448.29,295.94l0.6,0.28l-3.21,6.73l-0.6-0.28L448.29,295.94z M448.75,307.29l1.52,0.66l3.41-7.87l-1.52-0.66L448.75,307.29z
	 M454.34,299.81l-2.44-1.06l-3.8,8.79l2.44,1.06L454.34,299.81z M452.42,300.07l0.61,0.26l-3.01,6.95l-0.61-0.26L452.42,300.07z
	 M462.08,283.53l2.47-2.47l-1.17-1.17l-2.47,2.47L462.08,283.53z M465.26,281.06l-1.88-1.88l-3.17,3.17l1.88,1.88L465.26,281.06z
	 M463.38,280.6l0.47,0.47l-1.76,1.76l-0.47-0.47L463.38,280.6z M453,278.75l1.25,1.1l5.05-5.76l-1.25-1.1L453,278.75z
	 M460.01,274.05l-2-1.76l-5.71,6.51l2,1.76L460.01,274.05z M458.1,273.7l0.5,0.44l-4.39,5.01l-0.5-0.44L458.1,273.7z M447.05,276.04
	l1.41,0.88l4.7-7.52l-1.41-0.88L447.05,276.04z M453.84,269.24l-2.26-1.41l-5.23,8.37l2.26,1.41L453.84,269.24z M451.9,269.21
	l0.56,0.35l-4.17,6.67l-0.56-0.35L451.9,269.21z M443.54,270.37l1.36,0.95l1.64-2.35l-1.36-0.95L443.54,270.37z M447.25,268.85
	l-2.18-1.53l-2.22,3.17l2.18,1.53L447.25,268.85z M445.31,268.71l0.54,0.38l-1.07,1.53l-0.54-0.38L445.31,268.71z M445.86,253.27
	l1.66,0.13l0.12-1.53l-1.66-0.13L445.86,253.27z M448.17,251.41l-2.65-0.2l-0.2,2.52l2.65,0.2L448.17,251.41z M446.44,252.28
	l0.66,0.05l-0.04,0.53l-0.66-0.05L446.44,252.28z M451.85,255.06l1.66,0.08l0.12-2.47l-1.66-0.08L451.85,255.06z M454.16,252.19
	l-2.66-0.13l-0.17,3.47l2.66,0.13L454.16,252.19z M452.45,253.11l0.66,0.03l-0.07,1.47l-0.66-0.03L452.45,253.11z M457.51,259.15
	l1.63,0.35l1.53-7.17l-1.63-0.35L457.51,259.15z M461.26,251.95l-2.6-0.55l-1.74,8.15l2.6,0.55L461.26,251.95z M459.42,252.58
	l0.65,0.14l-1.32,6.19l-0.65-0.14L459.42,252.58z M462.44,262.94l1.64,0.29l1.88-10.57l-1.64-0.29L462.44,262.94z M466.54,252.25
	l-2.62-0.47l-2.06,11.56l2.62,0.47L466.54,252.25z M464.73,252.95l0.65,0.12l-1.7,9.59l-0.65-0.12L464.73,252.95z M468.83,263.97
	l1.56,0.59l3.83-10.17l-1.56-0.59L468.83,263.97z M474.85,254.09l-2.49-0.94l-4.18,11.11l2.49,0.94L474.85,254.09z M472.95,254.44
	l0.62,0.23l-3.48,9.24l-0.62-0.23L472.95,254.44z M475.31,263.33l1.51,0.69l2-4.35l-1.51-0.69L475.31,263.33z M479.48,259.43
	l-2.42-1.11l-2.42,5.26l2.42,1.11L479.48,259.43z M477.55,259.64l0.6,0.28l-1.58,3.44l-0.6-0.28L477.55,259.64z M519.54,385.87
	l1.18,1.17l6.82-6.88l-1.18-1.17L519.54,385.87z M528.25,380.16l-1.89-1.88l-7.53,7.59l1.89,1.88L528.25,380.16z M526.36,379.7
	l0.47,0.47l-6.12,6.17l-0.47-0.47L526.36,379.7z M515.54,381.87l6.93-6.93l-1.17-1.17l-6.93,6.93L515.54,381.87z M523.18,374.94
	l-1.88-1.88l-7.64,7.64l1.88,1.88L523.18,374.94z M521.3,374.47l0.47,0.47l-6.23,6.22l-0.47-0.47L521.3,374.47z M519.2,366.22
	l5.07-3.66l-0.97-1.35l-5.07,3.66L519.2,366.22z M524.97,362.66l-1.56-2.16l-5.88,4.25l1.56,2.16L524.97,362.66z M523.19,361.9
	l0.39,0.54l-4.26,3.08l-0.39-0.54L523.19,361.9z M520.5,370.79l5.71-4.25l-0.99-1.33l-5.71,4.25L520.5,370.79z M526.92,366.65
	l-1.59-2.13l-6.51,4.84l1.59,2.13L526.92,366.65z M525.12,365.91l0.39,0.53l-4.91,3.65l-0.39-0.53L525.12,365.91z M494.8,354.45
	l1.31,1.03l6.03-7.68l-1.31-1.03L494.8,354.45z M502.84,347.72l-2.09-1.65l-6.65,8.46l2.09,1.64L502.84,347.72z M500.91,347.48
	l0.52,0.41l-5.41,6.89l-0.52-0.41L500.91,347.48z M489.85,349.3l1.33,0.99l6.11-8.18l-1.33-0.99L489.85,349.3z M497.99,342.01
	l-2.13-1.59l-6.7,8.98l2.13,1.59L497.99,342.01z M496.06,341.82l0.53,0.4l-5.51,7.38l-0.53-0.4L496.06,341.82z M485.64,345.04
	l1.29,1.05l6.34-7.75l-1.29-1.05L485.64,345.04z M493.98,338.27l-2.06-1.69l-6.98,8.53l2.06,1.69L493.98,338.27z M492.06,337.99
	l0.51,0.42l-5.71,6.98l-0.51-0.42L492.06,337.99z M508.49,348.74l6.03-6.02l-1.17-1.18l-6.03,6.02L508.49,348.74z M515.23,342.72
	l-1.88-1.88l-6.74,6.73l1.88,1.88L515.23,342.72z M513.35,342.25l0.47,0.47l-5.32,5.31l-0.47-0.47L513.35,342.25z M504.73,340.05
	l1.19,1.16l5.78-5.9l-1.19-1.16L504.73,340.05z M512.41,335.31l-1.9-1.86l-6.48,6.61l1.9,1.86L512.41,335.31z M510.52,334.86
	l0.47,0.46l-5.08,5.19l-0.47-0.46L510.52,334.86z M499.92,335.23l1.18,1.17l7.22-7.24l-1.18-1.17L499.92,335.23z M509.02,329.16
	l-1.88-1.88l-7.92,7.95l1.88,1.88L509.02,329.16z M507.13,328.69l0.47,0.47l-6.51,6.53l-0.47-0.47L507.13,328.69z M497.34,319.05
	l1.41,0.88l5.75-9.29l-1.41-0.88L497.34,319.05z M505.19,310.48l-2.26-1.4l-6.28,10.14l2.26,1.4L505.19,310.48z M503.25,310.45
	l0.56,0.35l-5.23,8.44l-0.56-0.35L503.25,310.45z M501.01,321.93l1.33,0.99l6.11-8.22l-1.33-0.99L501.01,321.93z M509.16,314.59
	l-2.14-1.59l-6.71,9.03l2.14,1.59L509.16,314.59z M507.23,314.4l0.53,0.39l-5.51,7.42l-0.53-0.39L507.23,314.4z M504.44,324.84
	l1.3,1.03l3.64-4.58l-1.3-1.03L504.44,324.84z M510.08,321.21l-2.08-1.66l-4.26,5.37l2.08,1.66L510.08,321.21z M508.16,320.96
	l0.52,0.41l-3.02,3.8l-0.52-0.41L508.16,320.96z M505.74,307.1l1.33,1l4.91-6.56l-1.33-1L505.74,307.1z M512.68,301.44l-2.13-1.6
	l-5.51,7.36l2.13,1.6L512.68,301.44z M510.75,301.24l0.53,0.4l-4.31,5.76l-0.53-0.4L510.75,301.24z M501.7,301.99l1.37,0.94
	l5.05-7.41l-1.37-0.94L501.7,301.99z M508.82,295.38l-2.2-1.5l-5.61,8.24l2.2,1.5L508.82,295.38z M506.88,295.27l0.55,0.37
	l-4.48,6.58l-0.55-0.37L506.88,295.27z M497.75,297.33l1.43,0.85l3.57-6l-1.43-0.85L497.75,297.33z M503.43,292.01l-2.29-1.36
	l-4.08,6.86l2.29,1.36L503.43,292.01z M501.49,292.02l0.57,0.34l-3.06,5.14l-0.57-0.34L501.49,292.02z M340.04,400.94
	c-0.74-0.35-18.27-8.52-27.63-11.09c-7.51-2.06-16.32-6.76-21.58-9.56c-1.26-0.67-2.35-1.25-3.17-1.66
	c-2.22-1.11-6.77-2.87-11.59-4.73c-4.55-1.76-9.25-3.57-12.53-5.04c-5.61-2.51-13.41-6.21-16.44-9.23
	c-0.71-0.71-1.93-2.09-3.47-3.83c-4.64-5.24-12.42-14.01-17.82-17.44c-6.82-4.32-15.3-9.69-18.3-12.69
	c-0.65-0.65-1.47-1.54-2.41-2.57c-3.45-3.78-8.18-8.96-11.75-9.75c-4.12-0.92-6.78-0.16-8.83,0.75c-0.76-0.19-2.79-0.6-5.08-0.3
	c-1.87,0.24-3.57,1.28-4.43,2.7c-0.62,1.02-0.74,2.17-0.35,3.23c0.77,2.1,2.67,4.16,4.87,6.54c0.31,0.33,0.62,0.67,0.93,1.02
	c0.78,0.86,2.41,2.74,4.29,4.91c4.12,4.75,9.76,11.26,12.65,14.15c4.21,4.21,14.21,16.29,16.06,19.99c2,4,7.48,11.77,13.38,16.49
	c2.32,1.85,5.17,3.65,8.2,5.56c4.68,2.95,9.51,6,12.74,9.51c5.33,5.8,9.81,10.97,9.85,11.02l1.26-1.09
	c-0.04-0.05-4.54-5.25-9.89-11.06c-3.38-3.67-8.31-6.78-13.08-9.79c-2.98-1.88-5.8-3.66-8.04-5.45
	c-5.65-4.52-11.06-12.18-12.94-15.94c-1.91-3.81-12.09-16.14-16.37-20.43c-2.85-2.85-8.47-9.33-12.57-14.07
	c-1.97-2.27-3.52-4.07-4.32-4.94c-0.32-0.35-0.63-0.69-0.94-1.02c-2.08-2.25-3.87-4.2-4.53-5.99c-0.22-0.59-0.15-1.2,0.22-1.8
	c0.59-0.98,1.86-1.73,3.22-1.91c2.48-0.32,4.69,0.32,4.71,0.32l0.3,0.09l0.29-0.13c1.83-0.86,4.22-1.61,8.05-0.76
	c3.05,0.68,7.76,5.84,10.88,9.25c0.95,1.04,1.78,1.95,2.46,2.63c3.13,3.13,11.34,8.33,18.59,12.92c5.21,3.3,12.88,11.96,17.47,17.13
	c1.56,1.76,2.8,3.16,3.54,3.9c3.18,3.18,10.72,6.79,16.93,9.57c3.32,1.49,8.04,3.31,12.61,5.07c4.78,1.85,9.3,3.59,11.45,4.66
	c0.8,0.4,1.88,0.98,3.14,1.64c5.33,2.84,14.24,7.58,21.92,9.69c9.22,2.54,27.18,10.91,27.36,11L340.04,400.94z M259.6,407.89
	l-0.33-0.38c-0.47-0.55-4.78-5.52-9.89-11.07c-3.42-3.72-8.38-6.85-13.18-9.87c-2.97-1.87-5.77-3.64-8-5.42
	c-5.59-4.47-10.94-12.05-12.8-15.77c-1.93-3.85-12.16-16.26-16.46-20.55c-2.84-2.84-8.45-9.32-12.55-14.04l-0.2-0.23
	c-1.88-2.16-3.36-3.87-4.13-4.72l-0.94-1.02c-2.04-2.21-3.81-4.12-4.43-5.82c-0.17-0.45-0.11-0.9,0.17-1.36
	c0.52-0.86,1.64-1.51,2.86-1.67c2.37-0.31,4.48,0.3,4.5,0.31l0.49,0.15l0.46-0.21c1.75-0.82,4.05-1.55,7.73-0.73
	c2.89,0.64,7.54,5.73,10.63,9.11c0.96,1.05,1.78,1.95,2.47,2.64c3.17,3.17,11.4,8.38,18.68,12.99c5.15,3.26,12.79,11.89,17.41,17.11
	c1.54,1.74,2.76,3.11,3.51,3.86c3.24,3.24,10.83,6.87,17.08,9.67c3.3,1.48,7.99,3.29,12.52,5.04l0.12,0.04
	c4.77,1.84,9.27,3.58,11.4,4.64c0.77,0.38,1.8,0.93,2.98,1.56l0.14,0.08c5.34,2.84,14.28,7.61,22.03,9.74
	c9.13,2.51,27.1,10.88,27.28,10.97l0.45,0.21l1.13-2.41l-0.45-0.21c-0.74-0.35-18.28-8.53-27.7-11.12
	c-7.46-2.05-16.24-6.72-21.48-9.52c-1.27-0.67-2.36-1.26-3.19-1.67c-2.23-1.12-6.79-2.87-11.64-4.75c-4.54-1.75-9.24-3.56-12.5-5.03
	c-5.57-2.5-13.32-6.16-16.29-9.13c-0.71-0.71-1.98-2.14-3.45-3.81c-4.66-5.26-12.46-14.07-17.93-17.53
	c-6.8-4.3-15.26-9.66-18.22-12.62c-0.65-0.65-1.46-1.54-2.39-2.56c-3.5-3.83-8.29-9.08-12.01-9.9c-4.26-0.95-7.04-0.14-8.99,0.72
	c-0.9-0.21-2.88-0.56-5.1-0.27c-2.02,0.26-3.86,1.39-4.79,2.94c-0.7,1.16-0.84,2.46-0.4,3.66c0.81,2.2,2.74,4.29,4.97,6.71
	l0.93,1.01c0.79,0.86,2.49,2.82,4.29,4.9c4.12,4.76,9.77,11.27,12.68,14.18c4.19,4.19,14.13,16.2,15.96,19.86
	c2.02,4.04,7.55,11.89,13.52,16.66c2.34,1.88,5.21,3.68,8.25,5.6c4.65,2.93,9.45,5.96,12.64,9.42c5.08,5.52,9.36,10.46,9.84,11.01
	l0.33,0.38L259.6,407.89z M184.41,314.59l0.17,0.04l0.16-0.07c1.93-0.87,4.45-1.63,8.52-0.72c3.41,0.76,8.08,5.87,11.49,9.6
	c0.94,1.03,1.76,1.92,2.42,2.59c3.04,3.04,11.55,8.43,18.39,12.76c5.34,3.38,13.09,12.12,17.71,17.35c1.54,1.74,2.77,3.12,3.49,3.85
	c3.08,3.08,10.94,6.8,16.59,9.33c3.29,1.48,8,3.29,12.58,5.06c4.79,1.85,9.32,3.6,11.52,4.7c0.82,0.41,1.91,0.99,3.16,1.66
	c5.28,2.81,14.12,7.52,21.69,9.6c8.62,2.37,24.18,9.5,27.09,10.85l-0.28,0.6c-2.87-1.33-18.6-8.51-26.99-10.82
	c-7.64-2.1-16.52-6.83-21.82-9.65l-0.14-0.08c-1.2-0.64-2.23-1.19-3.01-1.57c-2.18-1.09-6.7-2.83-11.49-4.68l-0.11-0.04
	c-4.52-1.75-9.19-3.55-12.47-5.02c-6.17-2.77-13.66-6.35-16.78-9.47c-0.73-0.73-1.93-2.09-3.52-3.88
	c-4.6-5.19-12.3-13.89-17.58-17.23c-7.22-4.57-15.4-9.76-18.49-12.85c-0.67-0.67-1.49-1.57-2.45-2.62
	c-3.16-3.46-7.93-8.68-11.14-9.4c-3.97-0.88-6.46-0.09-8.37,0.8l-0.11,0.05l-0.12-0.03c-0.02-0.01-2.31-0.68-4.92-0.34
	c-1.51,0.2-2.92,1.04-3.59,2.15c-0.44,0.73-0.53,1.49-0.26,2.23c0.7,1.89,2.52,3.86,4.64,6.16l0.94,1.02
	c0.77,0.84,2.24,2.54,4.11,4.7l0.2,0.23c4.1,4.74,9.73,11.22,12.59,14.09c4.26,4.26,14.38,16.51,16.28,20.29
	c1.9,3.8,7.36,11.54,13.07,16.1c2.27,1.82,5.1,3.6,8.09,5.49c4.74,2.99,9.64,6.08,12.98,9.7c4.49,4.88,8.36,9.31,9.55,10.67
	l-0.5,0.43c-1.17-1.35-5.04-5.78-9.54-10.66c-3.27-3.56-8.14-6.63-12.84-9.59c-3.01-1.9-5.85-3.69-8.15-5.53
	c-5.85-4.68-11.27-12.36-13.25-16.32c-1.87-3.74-11.92-15.89-16.15-20.12c-2.88-2.89-8.52-9.38-12.63-14.13
	c-1.8-2.08-3.51-4.05-4.3-4.92l-0.94-1.02c-2.16-2.34-4.03-4.36-4.77-6.38c-0.34-0.91-0.23-1.91,0.31-2.8
	c0.78-1.29,2.34-2.24,4.07-2.46c0.56-0.07,1.1-0.1,1.61-0.1C182.62,314.2,183.85,314.45,184.41,314.59z M243.77,419
	c-0.97-0.85-1.8-1.58-2.44-2.17c-0.44-0.4-1.01-0.95-1.71-1.6c-4.37-4.09-13.46-12.61-20.78-18.3c-7-5.44-8.95-11.13-10.38-15.29
	c-0.26-0.75-0.5-1.45-0.75-2.1c-0.93-2.39-3.55-7.42-5.86-11.86c-1.84-3.53-3.57-6.86-4.13-8.24c-0.54-1.33-1.8-3.89-3.26-6.85
	c-2.05-4.17-4.37-8.9-5.19-11.21c-1.01-2.87-1.65-6.24-1.91-7.79c2.56-0.33,4-1.73,4.78-2.91c1.38-2.09,1.48-4.73,0.87-6.25
	c-0.97-2.42-7.1-9.23-7.79-10l-1.23,1.11c1.84,2.03,6.76,7.69,7.48,9.5c0.44,1.11,0.3,3.18-0.72,4.72
	c-0.93,1.41-2.45,2.19-4.37,2.23l-0.93,0.02l0.13,0.92c0.03,0.2,0.7,4.96,2.12,8.99c0.85,2.4,3.19,7.18,5.27,11.39
	c1.38,2.81,2.69,5.47,3.21,6.74c0.59,1.45,2.26,4.66,4.2,8.38c2.29,4.4,4.89,9.39,5.78,11.7c0.24,0.62,0.48,1.31,0.73,2.04
	c1.5,4.35,3.54,10.31,10.93,16.06c7.27,5.65,16.32,14.13,20.67,18.2c0.7,0.66,1.28,1.2,1.72,1.61c0.65,0.61,1.5,1.35,2.48,2.2
	c3.32,2.91,8.88,7.78,9.38,9.95l1.62-0.37C253.1,427.33,248.85,423.44,243.77,419z M254.27,430.2l-0.11-0.49
	c-0.61-2.64-4.73-6.42-10.06-11.09c-0.96-0.85-1.8-1.57-2.43-2.16c-0.44-0.4-1.01-0.94-1.71-1.6c-4.37-4.1-13.47-12.62-20.82-18.33
	c-6.88-5.35-8.81-10.96-10.22-15.06c-0.26-0.75-0.5-1.46-0.76-2.12c-0.93-2.4-3.55-7.43-5.89-11.93c-1.83-3.51-3.55-6.83-4.1-8.18
	c-0.54-1.34-1.8-3.89-3.27-6.88c-2.04-4.16-4.36-8.87-5.17-11.15c-0.89-2.53-1.49-5.44-1.8-7.21c2.45-0.47,3.86-1.9,4.62-3.04
	c1.47-2.23,1.58-5.07,0.92-6.71c-0.98-2.44-6.74-8.88-7.88-10.15l-0.34-0.37l-1.97,1.79l0.33,0.37c2.53,2.79,6.77,7.8,7.39,9.35
	c0.39,0.97,0.24,2.87-0.67,4.26c-0.84,1.27-2.21,1.97-3.97,2.01l-1.49,0.04l0.21,1.48c0.07,0.51,0.75,5.13,2.15,9.09
	c0.86,2.44,3.21,7.22,5.29,11.44c1.38,2.8,2.68,5.45,3.19,6.71c0.6,1.47,2.28,4.69,4.22,8.42c2.28,4.39,4.87,9.37,5.76,11.65
	c0.24,0.61,0.47,1.29,0.72,2.02c1.52,4.41,3.59,10.45,11.1,16.29c7.24,5.63,16.27,14.09,20.63,18.17c0.7,0.66,1.28,1.2,1.72,1.61
	c0.64,0.59,1.46,1.31,2.49,2.21c3.06,2.68,8.76,7.67,9.22,9.68l0.11,0.49L254.27,430.2z M186.39,332.49c2.1-0.05,3.75-0.9,4.78-2.46
	c1.15-1.74,1.25-3.97,0.76-5.18c-0.79-1.97-5.88-7.75-7.24-9.28l0.49-0.44c2.54,2.84,6.64,7.67,7.36,9.48
	c0.56,1.4,0.46,3.84-0.83,5.79c-0.7,1.05-2.03,2.38-4.43,2.69l-0.51,0.07l0.09,0.51c0.29,1.72,0.92,5.02,1.93,7.88
	c0.83,2.34,3.16,7.08,5.23,11.3c1.44,2.94,2.69,5.47,3.22,6.78c0.57,1.4,2.3,4.73,4.18,8.33c2.29,4.41,4.89,9.41,5.81,11.76
	c0.25,0.64,0.49,1.34,0.74,2.08c1.45,4.21,3.43,9.98,10.55,15.52c7.31,5.69,16.39,14.19,20.75,18.27c0.7,0.65,1.28,1.2,1.71,1.6
	c0.64,0.59,1.48,1.33,2.45,2.18c4.51,3.95,8.63,7.7,9.59,10.08l-0.65,0.15c-0.96-2.24-5.15-6.03-9.45-9.8
	c-0.94-0.83-1.76-1.54-2.39-2.13c-0.44-0.41-1.02-0.95-1.74-1.62c-4.35-4.08-13.41-12.56-20.68-18.21
	c-7.27-5.66-9.29-11.54-10.77-15.83c-0.25-0.74-0.49-1.43-0.73-2.06c-0.91-2.33-3.51-7.33-5.81-11.75c-1.93-3.71-3.6-6.91-4.18-8.34
	c-0.53-1.3-1.84-3.96-3.22-6.78c-2.06-4.19-4.4-8.95-5.24-11.33c-1.37-3.87-2.03-8.39-2.1-8.89l-0.05-0.37L186.39,332.49z
	 M231.27,431.17c-3.19-3.13-6.2-6.08-8.09-8.28c-5.16-6.02-10.88-12.87-13.4-18.04c-2.3-4.71,0.98-16.81,1.02-16.93l-1.6-0.44
	c-0.14,0.52-3.48,12.83-0.91,18.1c2.61,5.34,8.4,12.29,13.63,18.39c1.93,2.25,4.97,5.23,8.18,8.39c5.8,5.69,13.03,12.78,13.6,15.79
	l1.63-0.31C244.67,444.31,237.86,437.63,231.27,431.17z M245.92,448.23l-0.09-0.49c-0.7-3.68-7.57-10.41-14.22-16.94
	c-3.18-3.11-6.18-6.06-8.04-8.24c-5.14-6-10.83-12.82-13.33-17.93c-2.2-4.5,1.02-16.46,1.05-16.58l0.13-0.48l-2.56-0.71l-0.13,0.48
	c-0.15,0.53-3.53,13.01-0.88,18.46c2.63,5.39,8.45,12.37,13.7,18.49c1.94,2.26,4.97,5.23,8.21,8.42
	c5.45,5.34,12.92,12.66,13.46,15.52l0.09,0.49L245.92,448.23z M210.19,388.27c-0.6,2.36-2.98,12.46-0.86,16.8
	c2.55,5.21,8.29,12.1,13.46,18.14c1.9,2.21,4.91,5.17,8.12,8.31c5.94,5.83,12.64,12.4,13.8,15.91l-0.65,0.12
	c-1.14-3.34-7.75-9.82-13.65-15.6c-3.19-3.13-6.21-6.09-8.12-8.32c-5.21-6.07-10.98-13-13.56-18.28c-2.25-4.6,0.2-14.88,0.81-17.27
	L210.19,388.27z M299.67,323.84c-0.03,0.02-3.49,1.74-6.32-0.68c-3.13-2.68-7.41-8.97-8.37-10.9c-0.87-1.74-1.21-3.69-1.21-3.71
	l-1.64,0.27c0.01,0.09,0.38,2.21,1.36,4.18c1.04,2.08,5.44,8.56,8.78,11.42c3.67,3.15,7.98,0.99,8.16,0.9L299.67,323.84z
	 M300.66,325.77l0.44-0.23l-1.21-2.36l-0.44,0.22c-0.13,0.06-3.22,1.57-5.77-0.62c-3.08-2.64-7.3-8.84-8.25-10.75
	c-0.79-1.58-1.13-3.37-1.17-3.58l-0.1-0.47l-2.61,0.44l0.08,0.49c0.01,0.09,0.38,2.26,1.41,4.32c1.05,2.11,5.51,8.67,8.9,11.58
	c1.64,1.41,3.4,1.82,4.91,1.82C298.95,326.63,300.55,325.83,300.66,325.77z M283.38,309.12c0.16,0.73,0.52,2.09,1.15,3.36
	c0.98,1.96,5.32,8.34,8.5,11.06c2.45,2.1,5.31,1.35,6.41,0.94l0.3,0.6c-1.17,0.46-4.36,1.35-7.15-1.04
	c-3.29-2.82-7.63-9.21-8.66-11.27c-0.68-1.36-1.06-2.81-1.22-3.55L283.38,309.12z M313.73,337.54l-5.7,4.64l1.05,1.29l5.7-4.64
	L313.73,337.54z M315.48,338.9l-1.68-2.06l-6.47,5.27l1.68,2.06L315.48,338.9z M313.66,338.25l0.42,0.51l-4.92,4.01l-0.42-0.51
	L313.66,338.25z M319.92,343.39l-1.18-1.17l-6.54,6.6l1.18,1.17L319.92,343.39z M320.63,343.39l-1.89-1.87l-7.25,7.31l1.89,1.87
	L320.63,343.39z M318.74,342.93l0.47,0.47l-5.84,5.89l-0.47-0.47L318.74,342.93z M324.27,347.38l-4.93,2.58l0.77,1.47l4.93-2.58
	L324.27,347.38z M325.71,349.06l-1.24-2.36l-5.82,3.05l1.23,2.36L325.71,349.06z M324.06,348.05l0.31,0.59l-4.05,2.12l-0.31-0.59
	L324.06,348.05z M359.67,390.98l-1.61-0.42l-2.61,9.87l1.61,0.42L359.67,390.98z M360.28,390.62l-2.57-0.68l-2.86,10.83l2.57,0.68
	L360.28,390.62z M358.42,391.17l0.64,0.17l-2.35,8.9l-0.64-0.17L358.42,391.17z M365.43,396.96l-1.58-0.51l-4.5,13.91l1.58,0.51
	L365.43,396.96z M366.06,396.64l-2.53-0.82l-4.81,14.86l2.53,0.82L366.06,396.64z M364.17,397.08l0.63,0.2l-4.19,12.96l-0.63-0.2
	L364.17,397.08z M371.05,403.83l-1.6-0.44l-4.82,17.47l1.6,0.44L371.05,403.83z M371.66,403.48l-2.57-0.71l-5.09,18.44l2.57,0.71
	L371.66,403.48z M369.79,404l0.64,0.18l-4.56,16.51l-0.64-0.18L369.79,404z M376.62,412.39l-1.57-0.53l-5.48,16.24l1.57,0.53
	L376.62,412.39z M377.26,412.07l-2.52-0.85l-5.8,17.19l2.52,0.85L377.26,412.07z M375.36,412.49l0.63,0.21l-5.16,15.29l-0.63-0.21
	L375.36,412.49z M382.82,420.92l-1.56-0.56l-4.86,13.59l1.56,0.56L382.82,420.92z M383.46,420.62l-2.51-0.9l-5.2,14.54l2.51,0.9
	L383.46,420.62z M381.56,421l0.62,0.22l-4.53,12.65l-0.62-0.22L381.56,421z M388.63,428.48l-1.57-0.53l-4.21,12.48l1.57,0.53
	L388.63,428.48z M389.26,428.17l-2.52-0.85l-4.53,13.43l2.52,0.85L389.26,428.17z M387.37,428.58l0.63,0.21l-3.89,11.54l-0.63-0.21
	L387.37,428.58z M393.97,435.04l-1.58-0.51l-3.79,11.67l1.58,0.51L393.97,435.04z M394.6,434.72l-2.53-0.82l-4.1,12.62l2.53,0.82
	L394.6,434.72z M392.71,435.16l0.63,0.21l-3.48,10.72l-0.63-0.21L392.71,435.16z M399.56,440.89l-1.59-0.47l-3.15,10.62l1.59,0.47
	L399.56,440.89z M400.19,440.55l-2.55-0.75l-3.43,11.57l2.55,0.76L400.19,440.55z M398.31,441.04l0.63,0.19l-2.86,9.66l-0.64-0.19
	L398.31,441.04z M405.51,445.78l-1.6-0.45l-3.57,12.65l1.6,0.45L405.51,445.78z M406.13,445.43l-2.56-0.72l-3.84,13.61l2.56,0.72
	L406.13,445.43z M404.25,445.95l0.64,0.18l-3.29,11.69l-0.64-0.18L404.25,445.95z M412.32,451.16l-1.61-0.41l-3.32,12.89l1.61,0.41
	L412.32,451.16z M412.93,450.8l-2.58-0.67L406.78,464l2.58,0.67L412.93,450.8z M411.07,451.35l0.64,0.17l-3.07,11.92l-0.64-0.17
	L411.07,451.35z M418.98,456.39l-1.61-0.42l-3.28,12.72l1.61,0.42L418.98,456.39z M419.58,456.03l-2.58-0.67l-3.53,13.69l2.58,0.67
	L419.58,456.03z M417.73,456.58l0.64,0.17l-3.03,11.75l-0.64-0.17L417.73,456.58z M425.98,461.86l-1.62-0.37L421.48,474l1.62,0.37
	L425.98,461.86z M426.58,461.49l-2.59-0.6l-3.11,13.48l2.59,0.6L426.58,461.49z M424.74,462.09l0.64,0.15l-2.66,11.53l-0.64-0.15
	L424.74,462.09z M431.37,466.03l-1.65-0.18l-1.32,12.13l1.65,0.18L431.37,466.03z M431.92,465.58l-2.65-0.29l-1.42,13.12l2.65,0.29
	L431.92,465.58z M430.16,466.4l0.66,0.07l-1.21,11.13l-0.66-0.07L430.16,466.4z M439.01,472.33l-1.66-0.13l-1.08,13.67l1.66,0.13
	L439.01,472.33z M439.55,471.87l-2.65-0.21l-1.16,14.67l2.65,0.21L439.55,471.87z M437.81,472.74l0.66,0.05l-1,12.67l-0.66-0.05
	L437.81,472.74z M340.64,392.49l-1.65-0.16c-0.05,0.55-1.28,13.62,2.23,19.54l1.43-0.85C339.41,405.56,340.62,392.62,340.64,392.49z
	 M343.32,411.2l-0.25-0.43c-3.15-5.33-1.95-18.1-1.94-18.23l0.05-0.5l-2.65-0.26l-0.05,0.5c-0.05,0.56-1.31,13.75,2.29,19.84
	l0.25,0.43L343.32,411.2z M340.1,392.94c-0.18,2.39-0.8,12.74,1.87,17.9l-0.57,0.34c-2.78-5.33-2.15-15.89-1.96-18.3L340.1,392.94z
	 M346.4,405.41l-1.66,0.09l0.47,9.16l1.66-0.09L346.4,405.41z M347.39,415.05l-0.52-10.16l-2.66,0.14l0.52,10.16L347.39,415.05z
	 M345.92,405.93l0.42,8.17l-0.66,0.03l-0.42-8.17L345.92,405.93z M335.45,386.47l-1.63-0.33l-2.46,12.01l1.63,0.33L335.45,386.47z
	 M336.04,386.08l-2.61-0.53l-2.66,12.99l2.61,0.53L336.04,386.08z M334.22,386.72l0.65,0.13l-2.26,11.03l-0.65-0.13L334.22,386.72z
	 M329.72,386.24l-1.44-0.83l-5.18,8.96l1.44,0.83L329.72,386.24z M330.4,386.06l-2.3-1.33l-5.68,9.82l2.3,1.33L330.4,386.06z
	 M328.46,386.1l0.57,0.33l-4.68,8.09l-0.57-0.33L328.46,386.1z M323.78,383.51l-1.32-1.01l-5.61,7.31l1.32,1.01L323.78,383.51z
	 M324.49,383.42l-2.11-1.62l-6.22,8.1l2.11,1.62L324.49,383.42z M322.56,383.2l0.52,0.4l-5,6.52l-0.53-0.4L322.56,383.2z
	 M319.05,377.62l-1.48-0.75l-4.52,9l1.48,0.75L319.05,377.62z M319.72,377.4l-2.38-1.19l-4.97,9.89l2.38,1.19L319.72,377.4z
	 M317.79,377.55l0.59,0.3l-4.07,8.1l-0.59-0.3L317.79,377.55z M314.48,373.95l-1.52-0.68l-3.39,7.53l1.52,0.68L314.48,373.95z
	 M315.14,373.7l-2.43-1.09l-3.8,8.45l2.43,1.09L315.14,373.7z M313.22,373.93l0.6,0.27l-2.98,6.62l-0.6-0.27L313.22,373.93z
	 M310.97,366.17l-1.54-0.63l-3.76,9.16l1.54,0.63L310.97,366.17z M311.62,365.9l-2.46-1.01l-4.14,10.09l2.46,1.01L311.62,365.9z
	 M309.71,366.19l0.61,0.25l-3.38,8.24l-0.61-0.25L309.71,366.19z M307.82,359.89l-1.58-0.52l-3.51,10.55l1.58,0.52L307.82,359.89z
	 M308.45,359.57l-2.53-0.84l-3.82,11.49l2.53,0.84L308.45,359.57z M306.56,360l0.63,0.21l-3.19,9.6l-0.63-0.21L306.56,360z
	 M335.88,399.58l-1.66-0.01l-0.06,10.57l1.66,0.01L335.88,399.58z M336.38,399.08l-2.66-0.01l-0.06,11.57l2.66,0.01L336.38,399.08z
	 M334.71,400.08l0.66,0l-0.05,9.57l-0.66,0L334.71,400.08z M329.04,396.85l-1.66-0.12l-0.97,13.13l1.66,0.12L329.04,396.85z
	 M329.57,396.39l-2.65-0.2l-1.05,14.12l2.65,0.2L329.57,396.39z M327.84,397.26l0.66,0.05l-0.9,12.13l-0.66-0.05L327.84,397.26z
	 M438.14,525.66c3.36-5.46,7.44-14.09,7.77-24.19c0.6-18.16-1.64-24.09-5.98-28.68c-2.24-2.36-11.65-9.74-21.61-17.55
	c-8.69-6.81-17.68-13.86-20.36-16.43c-5.39-5.17-21.77-26.86-25.82-33.78c-3.02-5.16-8.15-10.3-12.27-14.44
	c-1.44-1.44-2.8-2.81-3.93-4.03l-0.02-0.02c-0.12-0.12-11.53-11.57-13.44-16.63c-2-5.3-8.26-13.77-15.58-21.09
	c-3.34-3.34-8.28-7.81-13.06-12.14c-5.28-4.78-10.27-9.3-12.29-11.56c-1.32-1.48-2.54-3.75-3.83-6.16
	c-2.37-4.43-5.06-9.44-9.4-11.21c-2.33-0.95-4.68-0.66-6.78,0.83c-3.44,2.43-5.33,7.34-5.17,10.67c0.25,5.18,5.13,18.06,6.43,20.76
	c1.15,2.4,4.76,6.69,8.93,11.65c0.69,0.83,1.4,1.66,2.11,2.51c2.72,3.26,5.24,8.56,7.46,13.24c1.66,3.5,3.1,6.53,4.38,8.23
	c1.13,1.5,2.33,3.37,3.59,5.35c1.95,3.05,3.96,6.21,5.88,8.13l5.24,5.24l-1.13,11.12l1.65,0.17l1.22-11.91l-5.8-5.8
	c-1.79-1.79-3.76-4.87-5.66-7.85c-1.28-2.01-2.49-3.91-3.67-5.46c-1.18-1.56-2.65-4.66-4.21-7.93c-2.26-4.77-4.83-10.18-7.69-13.6
	c-0.71-0.84-1.41-1.68-2.11-2.51c-3.93-4.67-7.65-9.09-8.71-11.3c-1.22-2.55-6.03-15.25-6.26-20.13c-0.14-2.84,1.63-7.23,4.47-9.24
	c1.65-1.16,3.39-1.38,5.2-0.65c3.79,1.55,6.33,6.28,8.57,10.46c1.33,2.49,2.6,4.85,4.05,6.48c2.08,2.33,7.1,6.87,12.41,11.69
	c4.76,4.31,9.69,8.77,13,12.08c7.17,7.17,13.28,15.41,15.2,20.5c2.02,5.36,13.19,16.58,13.81,17.2c1.15,1.25,2.52,2.62,3.96,4.07
	c4.27,4.28,9.1,9.14,12.02,14.11c4.2,7.16,20.51,28.77,26.11,34.14c2.74,2.63,11.36,9.38,20.48,16.54
	c9.48,7.43,19.28,15.11,21.43,17.39c4.04,4.26,6.11,9.9,5.53,27.48c-0.32,9.74-4.27,18.08-7.53,23.37
	c-4.28,6.96-9.23,11.75-12.43,13.92c-5.88,3.98-24.78-4.24-31-6.94c-1.17-0.51-2.01-0.87-2.45-1.03c-1.1-0.4-4.31-1.95-8.37-3.91
	c-6.34-3.06-15.02-7.26-21.21-9.71c-2.68-1.06-6.38-2.48-10.67-4.12c-11.28-4.32-26.74-10.25-31.18-12.64
	c-5.88-3.17-30.46-14.12-42.88-16.65c-6.06-1.24-11.64-3.14-16.14-5.5c-4.68-2.46-8.09-5.37-9.86-8.43
	c-2.21-3.82-12.18-14.26-21.83-24.36c-7.38-7.73-14.35-15.03-16.4-17.89c-4.11-5.76-5.46-11.68-6.88-17.95
	c-0.17-0.73-0.33-1.47-0.51-2.2c-0.61-2.62-6-25.78-7.04-33.06c-0.9-6.31,0.8-12.21,0.82-12.27l-1.59-0.47
	c-0.07,0.25-1.82,6.3-0.87,12.98c1.05,7.36,6.45,30.58,7.06,33.2c0.17,0.73,0.34,1.46,0.5,2.19c1.46,6.44,2.84,12.52,7.15,18.55
	c2.11,2.96,9.13,10.3,16.55,18.07c9.13,9.56,19.48,20.39,21.59,24.04c3.78,6.54,13.92,12.04,27.11,14.73
	c12.27,2.5,36.59,13.35,42.42,16.48c4.54,2.44,19.42,8.15,31.38,12.73c4.28,1.64,7.98,3.06,10.66,4.12
	c6.14,2.43,14.79,6.61,21.1,9.66c4.1,1.98,7.35,3.55,8.53,3.98c0.39,0.14,1.25,0.52,2.35,0.99c12.09,5.25,26.71,10.77,32.59,6.79
	c1.37-0.93,3.03-2.3,4.83-4.1C432.65,533.38,435.52,529.91,438.14,525.66z M425.5,540.5c1.5-1.02,3.2-2.46,4.9-4.16l0,0
	c2.07-2.07,5.17-5.56,8.16-10.42c3.39-5.51,7.51-14.22,7.85-24.43c0.61-18.34-1.68-24.35-6.12-29.04
	c-2.26-2.39-11.68-9.78-21.67-17.6c-8.68-6.8-17.65-13.84-20.32-16.4c-5.37-5.15-21.7-26.77-25.74-33.67
	c-3.06-5.21-8.21-10.38-12.38-14.57c-1.42-1.43-2.77-2.78-3.92-4.02c-0.11-0.11-11.45-11.49-13.33-16.45
	c-2.02-5.36-8.33-13.9-15.7-21.27c-3.35-3.35-8.3-7.83-13.12-12.19c-5.25-4.75-10.21-9.25-12.21-11.48
	c-1.29-1.44-2.49-3.69-3.76-6.06c-2.41-4.5-5.14-9.6-9.66-11.44c-2.5-1.02-5.01-0.71-7.26,0.88c-3.58,2.53-5.54,7.63-5.38,11.1
	c0.25,5.24,5.17,18.23,6.47,20.96c1.18,2.46,4.8,6.76,9.02,11.78c0.69,0.82,1.39,1.65,2.09,2.48c2.68,3.21,5.19,8.48,7.39,13.14
	c1.67,3.53,3.12,6.57,4.44,8.31c1.12,1.48,2.31,3.34,3.57,5.32c1.96,3.08,3.99,6.26,5.95,8.21l5.08,5.08l-1.16,11.38l2.65,0.27
	l1.29-12.64l-5.97-5.97c-1.75-1.75-3.7-4.8-5.6-7.78c-1.28-2.01-2.5-3.91-3.68-5.47c-1.15-1.52-2.61-4.59-4.15-7.85
	c-2.27-4.8-4.85-10.23-7.75-13.7c-0.71-0.85-1.41-1.69-2.12-2.52c-3.91-4.64-7.6-9.03-8.63-11.18c-1.21-2.53-5.99-15.13-6.22-19.93
	c-0.13-2.71,1.55-6.89,4.26-8.8c1.5-1.06,3.08-1.26,4.72-0.59c3.62,1.48,6.11,6.13,8.32,10.24c1.35,2.52,2.62,4.89,4.12,6.57
	c2.09,2.35,7.12,6.89,12.46,11.73c4.76,4.31,9.67,8.76,12.97,12.06c7.12,7.12,13.18,15.29,15.09,20.33
	c2.03,5.37,12.71,16.17,13.91,17.37c1.15,1.24,2.51,2.6,3.98,4.08c4.24,4.26,9.05,9.09,11.94,14.01
	c4.21,7.18,20.58,28.86,26.19,34.24c2.76,2.64,11.39,9.41,20.59,16.63c9.43,7.39,19.18,15.04,21.3,17.28
	c3.94,4.16,5.97,9.72,5.39,27.12c-0.32,9.62-4.23,17.89-7.45,23.12c-4.24,6.89-9.13,11.63-12.29,13.77
	c-3.75,2.54-14.02,0.19-30.52-6.98c-1.24-0.54-2.03-0.88-2.48-1.04c-1.07-0.39-4.25-1.92-8.35-3.9c-6.34-3.06-15.01-7.26-21.22-9.71
	c-2.65-1.05-6.29-2.44-10.5-4.06l-0.18-0.07c-11.27-4.32-26.71-10.23-31.12-12.61c-5.9-3.18-30.55-14.16-43.02-16.7
	c-6.01-1.22-11.54-3.11-16.01-5.45c-4.6-2.42-7.94-5.26-9.66-8.24c-2.24-3.87-12.24-14.33-21.9-24.45
	c-7.37-7.71-14.33-15-16.35-17.83c-4.05-5.68-5.39-11.55-6.8-17.77l-0.51-2.2c-0.61-2.62-5.99-25.78-7.03-33.02
	c-0.87-6.1,0.73-11.82,0.8-12.06l0.14-0.48l-2.55-0.75l-0.14,0.48c-0.08,0.26-1.85,6.43-0.88,13.19c1.05,7.39,6.46,30.62,7.07,33.25
	c0.17,0.73,0.34,1.46,0.5,2.19c1.47,6.49,2.86,12.61,7.23,18.73c2.14,2.99,9.16,10.34,16.62,18.16c9.1,9.53,19.41,20.32,21.49,23.92
	c3.85,6.66,14.11,12.25,27.44,14.97c12.22,2.49,36.47,13.3,42.29,16.43c4.56,2.46,19.43,8.15,31.44,12.75
	c4.28,1.64,7.98,3.06,10.65,4.11c6.12,2.42,14.76,6.6,21.07,9.65c4.11,1.99,7.36,3.56,8.58,4c0.39,0.14,1.32,0.55,2.32,0.98
	c9.23,4.01,19.95,8.17,27.25,8.17C422.03,541.93,424.03,541.5,425.5,540.5z M198.08,362.38c-0.39,1.56-1.47,6.64-0.7,12
	c1.04,7.28,6.43,30.48,7.04,33.11l0.51,2.2c1.44,6.32,2.79,12.29,6.96,18.13c2.07,2.89,9.05,10.2,16.45,17.94
	c9.62,10.08,19.58,20.49,21.76,24.26c1.82,3.14,5.3,6.12,10.06,8.63c4.55,2.39,10.17,4.31,16.27,5.55
	c12.37,2.52,36.87,13.44,42.74,16.6c4.48,2.41,19.95,8.34,31.24,12.67l0.18,0.07c4.21,1.61,7.85,3.01,10.49,4.05
	c6.17,2.44,14.83,6.62,21.22,9.72c4.05,1.96,7.25,3.51,8.38,3.91c0.44,0.16,1.35,0.56,2.42,1.02c6.28,2.73,25.37,11.03,31.48,6.89
	c3.24-2.2,8.25-7.05,12.58-14.07c3.29-5.34,7.28-13.77,7.6-23.62c0.59-17.76-1.54-23.49-5.67-27.84
	c-2.17-2.3-11.96-9.96-21.49-17.44c-9.12-7.15-17.72-13.9-20.45-16.51c-5.58-5.34-21.83-26.88-26.02-34.03
	c-2.95-5.03-7.8-9.9-12.12-14.24c-1.43-1.43-2.78-2.79-3.93-4.03c-0.48-0.48-11.71-11.76-13.69-17.03
	c-1.95-5.16-8.1-13.47-15.32-20.68c-3.32-3.32-8.25-7.78-13.04-12.11c-5.3-4.8-10.3-9.33-12.36-11.63
	c-1.41-1.59-2.66-3.91-3.99-6.39c-2.28-4.25-4.86-9.07-8.82-10.68c-1.97-0.8-3.88-0.57-5.67,0.7c-2.97,2.1-4.82,6.7-4.68,9.67
	c0.23,4.93,5.08,17.75,6.31,20.32c1.08,2.27,4.82,6.7,8.77,11.4c0.7,0.83,1.4,1.67,2.11,2.51c2.82,3.37,5.37,8.74,7.62,13.49
	c1.57,3.3,3.04,6.42,4.26,8.02c1.16,1.53,2.36,3.41,3.65,5.43c1.91,3,3.89,6.1,5.72,7.93l5.63,5.63l-1.14,11.17l-0.66-0.07
	l1.11-10.86l-5.41-5.41c-1.88-1.88-3.88-5.02-5.81-8.04c-1.27-1.99-2.47-3.87-3.62-5.38c-1.26-1.66-2.68-4.66-4.33-8.14
	c-2.23-4.71-4.76-10.05-7.53-13.35c-0.7-0.84-1.4-1.67-2.11-2.51c-4.15-4.93-7.74-9.19-8.86-11.54c-1.28-2.68-6.13-15.46-6.38-20.57
	c-0.15-3.2,1.66-7.9,4.96-10.24c1.96-1.39,4.14-1.66,6.31-0.78c4.18,1.7,6.82,6.64,9.15,10.99c1.3,2.43,2.53,4.72,3.89,6.25
	c2.03,2.28,7.01,6.79,12.32,11.6c4.77,4.32,9.71,8.79,13.04,12.12c7.27,7.27,13.49,15.68,15.47,20.91
	c1.95,5.16,13.44,16.69,13.56,16.81c1.13,1.22,2.48,2.58,3.95,4.05c4.1,4.12,9.2,9.24,12.19,14.34c4.07,6.93,20.5,28.7,25.91,33.88
	c2.71,2.59,11.7,9.64,20.41,16.47c9.94,7.8,19.34,15.16,21.55,17.5c4.25,4.49,6.44,10.33,5.85,28.32
	c-0.33,9.99-4.37,18.53-7.7,23.94c-2.94,4.77-5.98,8.2-8.02,10.24l0,0c-1.66,1.66-3.3,3.06-4.75,4.04
	c-5.68,3.85-20.14-1.63-32.11-6.83c-1.22-0.53-1.99-0.86-2.38-1c-1.17-0.42-4.39-1.98-8.48-3.96c-6.32-3.06-14.98-7.24-21.13-9.67
	c-2.67-1.06-6.38-2.48-10.72-4.14c-11.92-4.57-26.76-10.25-31.26-12.68c-5.85-3.15-30.25-14.02-42.56-16.53
	c-13.05-2.66-23.06-8.08-26.77-14.49c-2.14-3.7-12.5-14.54-21.66-24.14c-7.41-7.75-14.41-15.08-16.5-18.02
	c-4.25-5.95-5.62-11.98-7.07-18.36c-0.17-0.73-0.33-1.46-0.5-2.2c-0.61-2.62-6.01-25.82-7.05-33.16
	c-0.79-5.56,0.32-10.71,0.72-12.28L198.08,362.38z M313.03,390.64l-1.66,0.02l0.12,12.81l1.66-0.02L313.03,390.64z M313.65,403.94
	l-0.13-13.81l-2.66,0.02l0.13,13.81L313.65,403.94z M312.53,391.14l0.11,11.81l-0.66,0.01l-0.11-11.81L312.53,391.14z
	 M307.56,388.96l-1.64-0.28l-1.95,11.35l1.64,0.28L307.56,388.96z M308.14,388.55l-2.62-0.45l-2.12,12.33l2.62,0.45L308.14,388.55z
	 M306.33,389.25l0.65,0.11l-1.78,10.36l-0.65-0.11L306.33,389.25z M299.24,385.29l-1.63-0.31l-2.09,11.04l1.63,0.31L299.24,385.29z
	 M299.82,384.89l-2.62-0.49l-2.27,12.02l2.62,0.49L299.82,384.89z M298,385.56l0.65,0.12l-1.9,10.05l-0.65-0.12L298,385.56z
	 M292.11,381.64l-1.63-0.33l-2.24,10.94l1.63,0.33L292.11,381.64z M292.7,381.25l-2.61-0.53l-2.44,11.92l2.61,0.53L292.7,381.25z
	 M290.87,381.89l0.65,0.13l-2.04,9.96l-0.65-0.13L290.87,381.89z M284.29,377.75l-1.66-0.13l-0.87,11.31l1.66,0.13L284.29,377.75z
	 M284.83,377.29l-2.65-0.21l-0.95,12.31l2.65,0.2L284.83,377.29z M283.09,378.16l0.66,0.05l-0.79,10.31l-0.66-0.05L283.09,378.16z
	 M276.65,374.83l-1.64-0.27l-1.82,10.9l1.64,0.27L276.65,374.83z M277.23,374.42l-2.63-0.44l-1.98,11.88l2.62,0.44L277.23,374.42z
	 M275.42,375.13l0.65,0.11l-1.66,9.91l-0.65-0.11L275.42,375.13z M269.26,372.03l-1.61-0.43l-1.73,6.49l1.61,0.43L269.26,372.03z
	 M269.87,371.67l-2.57-0.69l-1.99,7.46l2.57,0.69L269.87,371.67z M268.01,372.21l0.64,0.17l-1.47,5.53l-0.64-0.17L268.01,372.21z
	 M287.69,425.89l-1.51-0.69l-2,4.35l1.51,0.69L287.69,425.89z M288.36,425.64l-2.42-1.11l-2.42,5.25l2.42,1.11L288.36,425.64z
	 M286.43,425.86l0.6,0.28l-1.58,3.44l-0.6-0.28L286.43,425.86z M282.4,418.96l-1.51-0.7l-4.11,8.81l1.51,0.7L282.4,418.96z
	 M283.07,418.72l-2.41-1.12l-4.53,9.72l2.41,1.13L283.07,418.72z M281.14,418.92l0.6,0.28l-3.69,7.91l-0.6-0.28L281.14,418.92z
	 M275.59,417.09l-1.5-0.72l-3.64,7.64l1.5,0.72L275.59,417.09z M276.25,416.85l-2.4-1.15l-4.07,8.54l2.4,1.15L276.25,416.85z
	 M274.32,417.04l0.6,0.28l-3.21,6.73l-0.6-0.28L274.32,417.04z M271.25,412.71l-1.52-0.66l-3.41,7.87l1.52,0.66L271.25,412.71z
	 M271.91,412.45l-2.44-1.06l-3.8,8.79l2.44,1.06L271.91,412.45z M269.99,412.71l0.61,0.26l-3.01,6.96l-0.61-0.26L269.99,412.71z
	 M257.92,436.47l-2.47,2.47l1.17,1.17l2.47-2.47L257.92,436.47z M259.8,437.64l-1.88-1.88l-3.17,3.17l1.88,1.88L259.8,437.64z
	 M257.92,437.18l0.47,0.47l-1.76,1.76l-0.47-0.47L257.92,437.18z M267,441.25l-1.25-1.1l-5.05,5.76l1.25,1.1L267,441.25z
	 M267.71,441.2l-2-1.76l-5.71,6.51l2,1.75L267.71,441.2z M265.8,440.86l0.5,0.44l-4.39,5.01l-0.5-0.44L265.8,440.86z M272.95,443.96
	l-1.41-0.88l-4.7,7.52l1.41,0.88L272.95,443.96z M273.64,443.8l-2.26-1.41l-5.23,8.37l2.26,1.41L273.64,443.8z M271.71,443.77
	l0.56,0.35l-4.17,6.67l-0.56-0.35L271.71,443.77z M276.46,449.63l-1.36-0.95l-1.64,2.35l1.36,0.95L276.46,449.63z M277.15,449.51
	l-2.18-1.53l-2.22,3.17l2.18,1.53L277.15,449.51z M275.22,449.38l0.54,0.38l-1.07,1.53l-0.54-0.38L275.22,449.38z M274.14,466.73
	l-1.66-0.13l-0.12,1.53l1.66,0.13L274.14,466.73z M274.67,466.27l-2.65-0.2l-0.19,2.52l2.65,0.21L274.67,466.27z M272.94,467.14
	l0.66,0.05l-0.04,0.53l-0.66-0.05L272.94,467.14z M268.15,464.94l-1.66-0.08l-0.12,2.47l1.66,0.08L268.15,464.94z M268.67,464.47
	l-2.66-0.13l-0.17,3.47l2.66,0.13L268.67,464.47z M266.96,465.39l0.66,0.03l-0.07,1.47l-0.66-0.03L266.96,465.39z M262.49,460.85
	l-1.63-0.35l-1.53,7.17l1.63,0.35L262.49,460.85z M263.08,460.46l-2.6-0.55l-1.74,8.14l2.6,0.56L263.08,460.46z M261.25,461.09
	l0.65,0.14l-1.32,6.19l-0.65-0.14L261.25,461.09z M257.56,457.06l-1.64-0.29l-1.88,10.57l1.64,0.29L257.56,457.06z M258.14,456.65
	l-2.62-0.47l-2.06,11.56l2.62,0.46L258.14,456.65z M256.33,457.35l0.65,0.12l-1.71,9.59l-0.65-0.12L256.33,457.35z M251.17,456.03
	l-1.56-0.59l-3.83,10.17l1.56,0.59L251.17,456.03z M251.82,455.74l-2.49-0.94l-4.18,11.11l2.49,0.94L251.82,455.74z M249.91,456.09
	l0.62,0.23l-3.48,9.24l-0.62-0.23L249.91,456.09z M244.69,456.67l-1.51-0.69l-2,4.35l1.51,0.69L244.69,456.67z M245.35,456.43
	l-2.42-1.11l-2.42,5.26l2.42,1.11L245.35,456.43z M243.42,456.64l0.6,0.28l-1.58,3.44l-0.6-0.28L243.42,456.64z M200.46,334.13
	l-1.18-1.17l-6.82,6.88l1.18,1.17L200.46,334.13z M201.17,334.13l-1.89-1.88l-7.53,7.59l1.89,1.88L201.17,334.13z M199.29,333.67
	l0.47,0.47l-6.12,6.17l-0.47-0.47L199.29,333.67z M204.46,338.13l-6.93,6.93l1.17,1.17l6.93-6.93L204.46,338.13z M206.34,339.3
	l-1.88-1.88l-7.64,7.64l1.88,1.88L206.34,339.3z M204.46,338.83l0.47,0.47l-6.23,6.23l-0.47-0.47L204.46,338.83z M200.8,353.78
	l-5.07,3.66l0.97,1.35l5.07-3.66L200.8,353.78z M202.47,355.24l-1.56-2.16l-5.88,4.25l1.56,2.16L202.47,355.24z M200.68,354.48
	l0.39,0.54l-4.26,3.08l-0.39-0.54L200.68,354.48z M199.5,349.21l-5.71,4.25l0.99,1.33l5.71-4.25L199.5,349.21z M201.19,350.64
	l-1.59-2.14l-6.51,4.84l1.59,2.14L201.19,350.64z M199.39,349.91l0.39,0.53l-4.91,3.65l-0.4-0.53L199.39,349.91z M225.2,365.55
	l-1.31-1.03l-6.03,7.68l1.31,1.03L225.2,365.55z M225.9,365.46l-2.09-1.65l-6.65,8.46l2.09,1.64L225.9,365.46z M223.98,365.22
	l0.52,0.41l-5.41,6.89l-0.52-0.41L223.98,365.22z M230.15,370.7l-1.33-0.99l-6.11,8.18l1.33,0.99L230.15,370.7z M230.85,370.6
	l-2.13-1.59l-6.7,8.98l2.13,1.59L230.85,370.6z M228.92,370.4l0.53,0.4l-5.51,7.38l-0.53-0.4L228.92,370.4z M234.36,374.96
	l-1.29-1.05l-6.34,7.75l1.29,1.05L234.36,374.96z M235.06,374.89L233,373.2l-6.98,8.53l2.06,1.69L235.06,374.89z M233.14,374.61
	l0.51,0.42l-5.71,6.98l-0.51-0.42L233.14,374.61z M211.51,371.26l-6.03,6.02l1.17,1.18l6.03-6.02L211.51,371.26z M213.39,372.43
	l-1.88-1.88l-6.73,6.73l1.88,1.88L213.39,372.43z M211.51,371.97l0.47,0.47l-5.32,5.31l-0.47-0.47L211.51,371.97z M215.27,379.95
	l-1.19-1.16l-5.78,5.9l1.19,1.16L215.27,379.95z M215.98,379.94l-1.9-1.86l-6.48,6.61l1.9,1.86L215.98,379.94z M214.09,379.49
	l0.47,0.46l-5.08,5.19l-0.47-0.46L214.09,379.49z M220.08,384.77l-1.18-1.17l-7.22,7.24l1.18,1.17L220.08,384.77z M220.79,384.77
	l-1.88-1.88l-7.92,7.95l1.88,1.88L220.79,384.77z M218.91,384.3l0.47,0.47l-6.51,6.53l-0.47-0.47L218.91,384.3z M222.66,400.95
	l-1.41-0.88l-5.75,9.29l1.41,0.88L222.66,400.95z M223.35,400.79l-2.26-1.4l-6.28,10.14l2.26,1.4L223.35,400.79z M221.41,400.76
	l0.56,0.35l-5.23,8.44l-0.56-0.35L221.41,400.76z M218.99,398.07l-1.33-0.99l-6.11,8.22l1.33,0.99L218.99,398.07z M219.69,397.97
	l-2.14-1.59l-6.71,9.03l2.14,1.59L219.69,397.97z M217.76,397.78l0.53,0.39l-5.51,7.42l-0.53-0.39L217.76,397.78z M215.56,395.16
	l-1.3-1.03l-3.64,4.58l1.3,1.03L215.56,395.16z M216.27,395.08l-2.08-1.66l-4.26,5.36l2.08,1.66L216.27,395.08z M214.34,394.83
	l0.52,0.41l-3.02,3.8l-0.52-0.41L214.34,394.83z M214.26,412.9l-1.33-1l-4.91,6.56l1.33,1L214.26,412.9z M214.96,412.8l-2.13-1.6
	l-5.51,7.36l2.13,1.6L214.96,412.8z M213.03,412.61l0.53,0.4l-4.31,5.75l-0.53-0.4L213.03,412.61z M218.3,418.01l-1.37-0.94
	l-5.05,7.41l1.37,0.94L218.3,418.01z M218.99,417.88l-2.2-1.5l-5.61,8.24l2.2,1.5L218.99,417.88z M217.05,417.77l0.55,0.37
	l-4.48,6.58l-0.55-0.37L217.05,417.77z M222.25,422.67l-1.43-0.85l-3.57,6l1.43,0.85L222.25,422.67z M222.94,422.5l-2.29-1.36
	l-4.08,6.86l2.29,1.36L222.94,422.5z M221,422.51l0.57,0.34l-3.06,5.14l-0.57-0.34L221,422.51z M541,541
	c48.35-48.35,74.97-112.62,74.97-181c0-68.37-26.62-132.65-74.97-181c-48.35-48.35-112.62-74.97-181-74.97S227.35,130.66,179,179
	c-48.35,48.35-74.97,112.63-74.97,181c0,68.37,26.62,132.65,74.97,181c48.35,48.35,112.62,74.97,181,74.97S492.65,589.34,541,541z
	 M539.58,180.42c47.97,47.97,74.39,111.75,74.39,179.58c0,67.84-26.42,131.61-74.39,179.58S427.84,613.97,360,613.97
	s-131.61-26.42-179.58-74.39S106.03,427.84,106.03,360c0-67.84,26.42-131.61,74.39-179.58c47.97-47.97,111.75-74.39,179.58-74.39
	S491.61,132.45,539.58,180.42z"/>
</svg>
