<?xml version="1.0" encoding="utf-8"?>
<!-- Generator: Adobe Illustrator 24.0.0, SVG Export Plug-In . SVG Version: 6.00 Build 0)  -->
<svg version="1.1" id="Layer_1" xmlns="http://www.w3.org/2000/svg" xmlns:xlink="http://www.w3.org/1999/xlink" x="0px" y="0px"
	 viewBox="0 0 720 720" style="enable-background:new 0 0 720 720;" xml:space="preserve">
<style type="text/css">
	.st0{fill:#A8381A;}
	.st1{fill:#E5DED6;}
	.st2{fill:#F4AF14;}
	.st3{fill:#304F43;}
	.st4{fill:#C16E00;}
	.st5{fill:#FFFFFF;}
</style>
<g>
	<g>
		<g>
			<path class="st5" d="M380.83,410.78c0-0.42-0.09-0.66-0.36-0.9h8.85c5.55,0,7.38,3.09,7.38,6.75c0,3.81-1.98,7.14-7.83,7.14
				c-0.57,0-1.17-0.03-1.83-0.09v-3.39c0.48,0.06,0.93,0.09,1.35,0.09c2.73,0,3.93-1.32,3.93-3.51c0-1.98-0.9-3.33-3.42-3.33h-3.78
				v16.43c0,0.42,0.09,0.66,0.36,0.9h-5.01c0.27-0.24,0.36-0.48,0.36-0.9V410.78z"/>
		</g>
		<g>
			<path class="st5" d="M423.77,421.93h-10.92v8.04c0,0.42,0.09,0.66,0.36,0.9h-5.01c0.27-0.24,0.36-0.48,0.36-0.9v-19.19
				c0-0.42-0.09-0.66-0.36-0.9h5.01c-0.27,0.24-0.36,0.48-0.36,0.9v7.5h10.92v-7.5c0-0.42-0.09-0.66-0.36-0.9h5.01
				c-0.27,0.24-0.36,0.48-0.36,0.9v19.19c0,0.42,0.09,0.66,0.36,0.9h-5.01c0.27-0.24,0.36-0.48,0.36-0.9V421.93z"/>
		</g>
		<g>
			<path class="st5" d="M462.33,420.34c0,7.05-5.28,10.92-11.13,10.92c-5.58,0-10.83-3.48-10.83-10.59c0-6.87,4.89-11.1,11.01-11.1
				C457.17,409.58,462.33,413.35,462.33,420.34z M444.85,420.52c0,4.59,2.61,7.02,6.42,7.02c4.47,0,6.6-3.27,6.6-7.26
				c0-4.41-2.58-6.99-6.54-6.99C447.04,413.29,444.85,416.29,444.85,420.52z"/>
		</g>
		<g>
			<path class="st5" d="M489.56,413.92c-0.3-0.3-0.48-0.39-0.87-0.39h-5.88v16.43c0,0.42,0.09,0.66,0.36,0.9h-5.01
				c0.27-0.24,0.36-0.48,0.36-0.9v-16.43h-5.88c-0.39,0-0.57,0.09-0.87,0.39v-4.05h17.78V413.92z"/>
		</g>
		<g>
			<path class="st5" d="M520.96,420.34c0,7.05-5.28,10.92-11.13,10.92c-5.58,0-10.83-3.48-10.83-10.59c0-6.87,4.89-11.1,11.01-11.1
				C515.8,409.58,520.96,413.35,520.96,420.34z M503.47,420.52c0,4.59,2.61,7.02,6.42,7.02c4.47,0,6.6-3.27,6.6-7.26
				c0-4.41-2.58-6.99-6.54-6.99C505.66,413.29,503.47,416.29,503.47,420.52z"/>
		</g>
	</g>
	<g>
		<path class="st5" d="M334.91,308.63c0,0.55-0.19,1.11-0.74,1.85c-1.48,3.51-2.95,6.46-4.43,9.6c-1.29,2.77-2.4,5.35-4.06,7.75
			c-0.55,0.74-0.55,1.48-1.11,2.4l-1.66,2.4l-1.48,2.77l-2.4,4.8c-1.29,1.66-2.03,3.32-2.58,4.62c-0.37,1.48-0.92,2.77-1.48,4.06
			c-1.29,2.4-2.95,4.25-3.51,7.02c-0.55,1.66-1.48,2.95-2.03,4.62c-0.55,1.48-0.92,3.14-1.66,4.62c-0.18,0.18-0.37,0.74-0.55,1.48
			c-0.55,0.92-0.37,1.85-0.92,2.77l-1.66,4.43c-0.55,1.29-0.92,2.95-1.66,4.25c-0.19,0.55-0.19,0.92-0.19,1.48
			c-0.55,1.29-0.37,2.59-0.92,3.88l-0.74,2.22c-0.18,0.55-0.18,1.29-0.18,2.4c0,0.19-0.18,0.92-0.37,1.85l-0.55,3.69
			c-0.18,1.48-0.18,3.14,0.37,4.43c0.55,1.48,0.74,2.59-0.55,3.88c-1.11,1.29-2.4,1.85-3.88,1.29c-2.21-0.74-2.77-3.14-2.77-5.17
			c-0.18-2.77-0.18-5.72,0.37-8.12l0.55-1.85c0.18-0.18,0.18-0.55,0.18-1.11c0-0.74,0-1.85,0.19-2.77c0.55-1.29,1.11-2.4,1.29-3.69
			c1.29-4.62,2.4-8.68,4.06-13.11c0.74-2.03,0.92-3.51,1.48-5.54c0.18-1.29,0.74-2.59,1.66-4.25c0.55-1.29,0.74-2.4,1.29-3.69
			c0.92-2.4,2.03-4.8,3.32-7.2c0.74-2.03,1.85-4.06,3.14-6.09c0.74-1.66,2.03-2.58,1.85-4.62c-1.66-0.74-1.29,1.29-2.58,2.22
			c-0.92,0.74-1.66,1.85-2.4,2.58c-0.92,0.92-2.03,1.29-2.77,2.22c-0.74,0.74-1.11,1.66-1.66,2.4c-0.74,0.74-1.48,1.48-2.03,2.4
			c-0.18,0.55-0.74,1.29-1.48,2.22c-0.74,0.74-1.29,1.48-1.85,2.4c-1.29,2.03-2.58,3.32-3.88,5.35c-0.55,0.74-1.11,1.48-1.29,2.03
			c-0.74,1.29-1.85,1.85-2.4,2.77c-0.92,1.66-1.85,3.32-3.14,4.62c-1.29,1.29-2.22,3.14-3.14,4.8c-0.55,0.92-1.48,2.77-2.77,2.77
			c0,0.74-0.74,1.29-0.74,2.22l-0.74,2.03c-1.29,1.48-2.22,2.77-2.77,4.8c-0.55,1.29-1.66,2.77-3.14,2.77
			c-2.03,0.18-4.8,0.37-6.09-1.85c-0.92-1.66-0.18-3.69-0.18-5.72c0.18-3.14,0.18-6.09,0.74-9.6l0.55-5.91
			c0.55-3.69,0.74-7.39,1.29-11.08c0.18-2.03,0.37-3.88,0.92-5.54c0-0.55,0.55-0.74,0.55-1.29c0-0.55-0.19-0.37-0.19-0.92
			s0.19-1.29,0.37-2.22c0.18-2.03,0.74-3.32,1.29-4.98c0.55-2.21,0.74-4.43,2.03-6.46c0.74-1.29,1.11-2.95,1.66-4.25l1.11-3.14
			c0.55-1.29,0.74-2.21,0.74-3.51c-0.37-0.55-0.74-0.92-0.92-0.74c-0.55,0.19-0.74,0.74-1.29,1.29c-0.92,1.66-2.4,2.95-2.95,4.98
			l-1.66,3.32c-0.74,0.92-0.92,1.85-1.66,3.14c-2.77,3.69-3.14,8.49-5.54,12.18c-0.92,1.48-1.29,3.14-2.03,4.8
			c-0.55,1.48-2.03,2.77-2.58,4.25c-0.18,0.55,0,0.92-0.55,1.48l-2.77,6.09c-0.92,1.66-1.48,3.51-2.4,5.17l-2.03,3.69l-2.22,2.58
			c-2.03,2.77-2.95,5.91-5.17,8.68c-0.55,0.74-1.29,1.29-1.85,2.22c-1.48,2.22-2.77,4.06-4.8,6.09l-0.55,0.55l-1.66,1.66
			c-1.66,1.85-3.88,3.51-6.46,4.8c-0.92,0.55-1.85,0.74-2.77,1.29l-1.29,0.55c-0.55,0.19-0.92,0.55-1.48,0.55s-0.55,0.19-0.74,0.19
			s-0.55,0.18-0.74,0.18c-0.18,0-0.37,0.18-0.55,0.18h-0.55c-0.74,0.18-1.48,0.37-2.03,0.37c-1.29,0.18-2.58,0.37-3.88,0.37
			c-3.69,0.18-7.02-0.92-10.52-2.4c-2.03-0.92-3.51-2.77-4.43-4.8c-0.92-2.03-2.21-3.69-0.92-5.72c0.55-0.92,0.74-2.22,1.66-2.77
			c1.29-0.74,3.14-0.18,3.88,1.11c0.92,1.29,0.74,2.58,1.29,3.88c1.29,2.77,3.14,3.32,5.54,3.88c1.66,0.55,2.95,0.92,4.62,0.37
			l4.06-0.37l3.88-0.92c2.03-0.92,3.51-2.22,5.17-3.51c1.48-1.11,2.95-2.59,4.43-4.25c1.29-1.29,2.22-2.77,3.14-4.06
			c0.92-1.29,2.03-2.4,2.77-3.69l0.55-1.11l2.03-3.14l0.18-0.18l2.03-4.06c0.55-0.74,0.74-1.29,0.92-1.66l1.48-2.77l0.18-0.37
			l1.48-2.4c0.18-0.74,0.37-1.29,0.55-1.48c0.18-0.55,0.37-0.74,0.55-0.92c0.18-0.55,0.37-0.92,0.74-1.29
			c0.18-0.55,0.18-0.74,0.74-1.29c0.55-1.29,0.55-2.21,1.11-3.14c0.55-0.55,0.55-0.92,1.11-1.48c0.92-2.03,1.48-3.69,2.4-5.35
			l2.77-4.43l1.48-3.69c0.37-1.48,0.92-2.77,1.85-3.69c0.92-1.29,1.11-2.58,1.66-4.06c0.92-2.21,2.4-4.06,3.32-6.28
			c0.55-1.29,2.95-5.35,3.69-6.65c0.18-0.55,0.37-0.55,0.92-1.11c0.55-0.55,0.55-1.29,1.11-1.85l1.48-1.66
			c0.92-0.92,1.66-1.66,2.03-2.22c0.37-0.37,1.11-0.55,2.03-0.55c0.55,0,1.11,0,1.29,0.18c0.18,0,0.37,0.18,0.55,0.37
			c0,0,0.18,0.19,0.74,0.37l0.37,0.55c0.55,0.55,1.29,0.92,2.03,1.48c0.74,0.55,1.29,0.74,1.85,1.29c0.55,0.18,0.55,0.74,1.11,0.92
			c0.18,0.55,0.74,0.55,0.74,1.11c0,0,0,0.18,0,0.74c0,1.11-0.18,2.03-0.37,2.59c-0.18,0.92-0.55,1.85-1.11,2.77
			c-0.74,2.03-1.66,3.88-2.21,5.91c-0.55,1.48-1.11,2.77-1.29,4.43c0,1.66-1.11,3.32-1.66,4.8c-0.55,0.55-0.74,1.29-0.74,2.22
			c-0.18,1.48-0.37,2.95-0.92,4.43l-0.74,1.48c-0.74,2.03-0.74,4.25-1.29,6.28c-0.55,2.03-0.37,3.51-0.92,5.54
			c-0.19,2.03-0.92,3.88-0.37,5.91c0,1.29,0.18,2.22,0.74,2.77c0.92,0.55,1.85,0,2.58-0.55c2.03-0.74,2.58-2.4,3.88-4.06
			c1.29-2.03,2.21-4.06,3.69-6.09c2.03-2.4,3.69-4.8,5.72-7.2c0.74-1.29,1.11-2.22,1.85-3.14c0.92-1.29,1.85-2.4,2.77-3.32
			l2.58-2.59c1.66-2.03,2.77-3.88,4.43-5.91c0.74-0.74,1.48-1.11,2.21-1.66l2.03-2.4c1.29-0.92,1.85-2.03,2.77-3.32
			c2.95-2.77,5.35-5.54,8.31-8.31c0.74-0.74,1.66-1.29,2.21-2.22l5.54-6.65c0.74-0.74,1.85-1.48,2.58-2.03
			c0.92-0.55,2.03-0.55,2.95-0.74c1.11-0.37,1.85,0,2.4,0.92C335.1,307.34,335.1,307.9,334.91,308.63z M216.57,324.88
			c-0.92-3.32-1.29-6.65-0.92-9.78c0.18-2.03,1.29-4.06,2.22-5.72c0.92-2.03,1.66-3.69,2.95-5.35c2.03-2.22,3.69-3.88,6.46-5.91
			c0.92-0.55,1.85-1.48,2.77-2.03c2.03-1.48,3.88-2.4,5.91-3.69c0.74-0.55,1.29-0.55,2.03-1.11c1.66-0.92,2.95-1.11,4.98-1.66
			l6.83-0.74c1.85-0.18,3.69-0.18,5.72,0c1.66,0,3.32,0.19,5.17,0.55c1.29,0.18,1.85,0,3.14,0.18c0.92,0.18,1.85,0.74,3.14,1.29
			c2.03,0.55,3.51,2.4,5.54,3.69c1.29,0.74,2.03,1.66,3.32,2.21c1.48,0.92,2.4,2.22,3.69,3.51c0.74,0.55,1.29,1.11,2.03,1.29
			c-0.18,0-0.18,0.18,0,0.18h0.19c0,0,0,0,0.18,0c0,0,0,0-0.18-0.18h1.29c0.74-0.18,1.29-0.55,2.03-1.11l2.22-1.66
			c1.29-1.29,2.77-2.22,4.25-3.14l2.03-1.29c0.55-0.55,1.29-0.55,1.85-0.74c0.37-0.19,0.92-0.55,1.66-0.74l1.85-0.74h5.17H305
			c4.25,0,7.94,2.03,10.15,5.17c2.4,3.51,2.77,9.05-1.48,12.18c-0.18,0.18-0.37,0.37-0.37,0.37c-0.55,0.18-0.55,0.55-1.11,0.74
			l-0.74,0.55c-1.29,0.92-2.77,1.66-4.62,2.21c-0.18,0-0.55,0.18-1.11,0.37c-2.22,0.55-4.43,1.11-6.65,1.11
			c-0.55,0-0.74,0.18-1.29,0.18h-1.11c-2.03,0-3.88-0.18-5.91-0.74c-0.18,0-0.55-0.18-0.74-0.18c-0.55-0.18-1.29-0.37-2.03-0.92
			l-0.37-0.18c-0.19,0-0.19-0.18-0.74-0.18c-0.55-0.18-0.92,0-1.48-0.55l-0.55-0.55c0,0,0,0-0.18-0.18l-0.18-0.18l-0.55-0.37
			c-1.29-0.74-2.03-1.66-2.95-2.95l-2.03-1.66c-0.74-0.55-1.29-0.37-2.03-1.11c-2.03-1.66-4.06-3.14-6.09-4.62
			c-2.03-1.48-3.88-2.4-6.09-3.14c-4.25-1.48-7.94-1.48-12.18-2.03c-3.69-0.55-6.83,0.92-10.52,1.48c-2.03,0.55-3.32,1.29-4.98,2.03
			c-1.48,0.55-2.77,0.55-4.06,1.85c-1.29,1.29-1.85,2.77-3.32,3.69c-1.66,0.92-2.58,2.58-3.51,4.06c-1.66,2.77-2.77,5.72-2.95,9.05
			v2.4c-0.18,2.03,0,2.95,0.55,4.62c0.18,1.48,0,3.14,0.55,4.62c0.55,1.29,1.66,2.03,2.21,3.32c0.55,1.66,0.74,3.32,1.66,4.8
			l2.03,2.22c0.92,0.55,1.48,1.29,1.85,1.85c1.29,1.48,1.66,4.06,1.48,5.72c-0.37,1.66-1.29,2.4-2.58,2.4
			c-0.55,0-0.92-0.18-1.48-0.55c-0.19-0.18-0.55-0.37-0.92-0.37c-0.55-0.18-0.74-0.37-0.92-0.55c0,0,0-0.19-0.18-0.37
			c-0.18-0.19-0.18-0.55-0.74-0.74c-0.18-0.18-0.37-0.37-0.55-0.37l-0.55-0.55l-1.11-1.66v-0.19l-1.66-2.4
			c-2.95-5.17-4.62-10.89-6.09-16.62L216.57,324.88z M306.85,299.22c-1.66,0-3.32,0.18-4.8,0.74c-0.92,0.55-1.85,0.18-2.58,0.74
			c-1.48,0.55-2.03,2.03-3.32,2.95c-0.55,0-3.51,3.88-2.77,4.25h0.19l0.55,0.37h0.55c0.55,0,0.74,0.18,0.92,0.18h0.37
			c0.55-0.18,1.29,0.55,1.85,0.55c0.18,0,0.37-0.19,0.92-0.19h0.37h0.74c3.88-0.55,7.02-1.66,9.42-3.14
			c0.92-0.55,1.85-2.4,1.66-3.32c0-1.66-1.11-2.77-3.14-3.14H306.85z"/>
		<path class="st5" d="M370.17,335.22c-0.55,0.55-0.55,0.92-1.11,0.92c-2.77,0.55-4.25,2.77-4.8,5.17c-0.18,1.29-0.55,2.4-0.37,3.69
			c0,0.55,0.37,1.29,0.37,1.85c0.18,0.37,0.18,0.92,0.18,1.48c0,0.74,0.19,1.11,0.19,1.85c0.18,0.92,0.18,2.03,0.18,3.32
			c-0.18,0.18-0.18,0.55-0.18,1.11v1.48c0,0.55-0.19,0.92-0.19,1.48c0.19,0.37,0.19,0.92,0.19,1.85c0.18,0.55,0,0.92,0,1.48
			c-0.19,0.55,0,0.92,0,1.48v4.06c-0.19,0-0.19,0-0.19,0.18h0.19c-0.19,1.48-0.55,2.58-0.74,3.51c-0.55,1.29-0.37,2.58-0.55,3.88
			c0,0.18,0,0.18-0.18,0.37c-0.55,1.48-1.11,2.95-1.85,4.25c-0.92,1.66-2.22,3.14-3.88,4.06c-3.51,2.03-7.94,2.58-11.63,1.29
			l-4.43-1.85l-1.11-0.55l-0.55-0.37l-0.18-0.37c-0.18,0-0.18-0.18-0.37-0.18l-0.55-0.55c-0.18-0.18-0.37-0.55-0.37-0.74
			c-0.18-0.18-0.18-0.37-0.18-0.55s0.18-0.37,0.18-0.55c0-0.55,0-0.92,0.19-1.11l0.74-0.92l0.74-0.55c0.19,0,0.37,0.18,0.55,0.18
			h0.37c0.19,0,0.55,0.18,0.74,0.37c0.37,0,0.55,0,0.74,0.19c0,0,0.18,0,0.37,0.18c0.18,0.18,0.55,0.37,0.74,0.37
			c0,0,0.19,0.18,0.74,0.37c0.19,0,0.19,0.18,0.37,0.18c0,0,0.18,0,0.37,0.18c0.18,0,0.37,0,0.55,0.18s0.18,0.18,0.37,0.18
			c0.74,0.19,1.29,0.37,1.48,0.55c1.48,0.55,3.14,0,4.62,0c1.11-0.19,2.21-0.92,3.14-2.03c0.92-1.29,2.03-2.4,2.58-4.06
			c0.55-2.21,1.29-4.62,1.29-6.83c0.18-2.4-0.55-4.43,0-6.83c0.18-1.29,0.74-2.77,0.18-4.25c-0.18-0.74,0-1.48-0.18-2.22
			c-0.18-0.18-0.18-0.18-0.18-0.37c-0.19-0.55-0.37-0.37-0.55-0.92h-0.18c-1.48-1.85-2.95-2.03-4.62-0.55
			c-1.66,1.29-2.77,3.51-4.06,5.54c-0.55,0.74-1.29,1.66-2.03,2.22c0,0.18-0.18,0.37-0.55,0.74c-0.18,0-0.18,0-0.18,0.18
			c-0.55,0.55-0.74,1.29-1.29,1.85l-0.55,0.74l-1.85,2.21l-0.74,0.92c0,0.19,0,0.37-0.18,0.55c0,0.55-0.55,0.55-0.74,1.11
			l-1.11,1.66c-0.19,0.55-0.37,0.37-0.55,0.92c-0.18,0.55-0.55,0.74-0.74,1.29c-0.92,1.48-2.03,2.77-2.95,4.06l-0.18,0.19
			c0,0.18-0.18,0.37-0.37,0.55c-1.29,2.03-2.77,3.32-4.06,4.62l-1.11,0.92l-0.19,0.18c-0.18,0-0.18,0-0.37,0.18
			c-0.55,0.55-0.92,0.55-1.48,1.11c-0.18,0.18-0.37,0.37-0.37,0.37c-0.37,0-0.55,0-0.74,0.18c-0.55,0-0.37,0.37-0.55,0.55
			c-0.74,0.55-2.03,0.92-2.77,1.11c-0.55,0.18-1.29,0-1.85,0c-0.55,0.18-1.11,0.18-1.66,0c-1.66-0.37-2.77-0.92-3.69-1.85
			c-0.19-0.18-0.55-0.74-0.74-0.74c-0.55-0.19-0.74,0.18-0.92-0.37c-0.55-0.55-0.19-1.29-0.74-1.85l-0.37-0.74
			c-0.55-2.03-0.18-3.69,0-5.72c0.18-0.92,0.37-2.03,0.92-3.14c0.19-0.55,0.19-1.66,0.74-2.22c0.55-1.66,0.92-3.14,1.85-4.8
			l2.4-5.54c0.55-1.29,1.11-2.21,1.66-3.14l3.88-6.83c0.55-1.29,1.29-2.03,1.85-2.95c0.55-0.74,0.37-1.85,0.92-2.58
			c0.92-1.29,1.11-2.58,2.4-3.88l3.51-3.88c1.29-1.29,3.51-2.77,4.8-0.74c0.92,1.48,0,3.88-0.74,5.17c-1.29,2.03-2.4,3.32-3.32,5.35
			c-0.92,1.48-1.66,2.95-2.4,4.43c-0.18,0.55-0.55,0.92-1.11,1.48l-1.48,2.03c-0.55,0.55-0.37,1.11-0.55,1.66
			c-0.92,1.48-1.48,2.95-2.4,4.43c-0.55,0.74-1.11,1.11-1.29,1.85c-0.55,0.74-0.37,1.29-0.92,1.85c-0.55,0.92-0.92,1.85-1.11,2.58
			c-0.55,0.92-0.74,1.85-1.29,2.77c-0.92,1.48-1.48,3.14-2.03,4.62c0,0.92-0.19,1.66-0.19,2.4c-0.18,0.92,0,1.85,0.74,2.77
			c0.19,0.18,0.74,0.92,1.29,1.11c0.18,0.19,0.74,0,1.29-0.18c0.55-0.18,0.92,0.18,1.48-0.37c0.55-0.18,0.74-0.74,1.29-0.92
			c0.92-0.74,1.85-1.48,2.58-2.4l0.37-0.37c0.55-0.55,0.37-0.74,0.92-0.92c0.92-0.92,1.66-1.66,2.03-2.21
			c0.74-0.74,0.92-1.48,1.48-2.21l1.29-1.85c0.18-0.18,0.37-0.37,0.55-0.92c0.18-0.55,0.37-0.92,0.37-1.11l1.29-1.66l1.48-2.22
			c0.19-0.55,0.55-0.74,0.74-1.29c0.55-0.55,0.55-1.11,1.11-1.29c0-0.18,0-0.18,0.18-0.18c0.18-0.55,0.55-1.11,1.29-1.85h0.18
			c0.74-0.74,1.48-1.66,2.03-2.58l0.55-1.11c0.18-0.55,0.55-0.55,0.74-1.11l0.74-0.55v-0.18l1.48-1.85c0-0.18,0.18-0.37,0.37-0.55
			c0-0.19,0.19-0.19,0.19-0.37l0.55-1.29c0.37-0.74,0.74-1.29,1.29-1.85l1.11-1.11l1.11-1.11l0.74-0.55
			c0.37-0.18,0.92-0.74,1.48-1.29c0,0,0-0.18,0.18-0.37c0.55-0.55,0.55-0.92,1.11-1.48l2.03-2.21c2.03-2.03,3.69-3.69,6.09-5.17
			c2.03-1.29,4.62-2.03,6.28,0C371.28,332.82,371.46,334.11,370.17,335.22z M339.9,323.59c-0.74-0.74-0.92-1.66-0.74-2.77
			c0.19-0.92,0.74-1.85,1.29-2.77c0.74-0.92,1.29-0.55,2.22-0.74c0.92-0.37,1.85-0.37,2.4,0c0.55,0.18,1.29,1.11,1.48,1.66
			c0.37,0.92,0.37,1.66-0.18,2.4c-0.55,0.55-0.74,1.48-1.29,2.03l-0.55,0.37c-0.37,0-0.74,0-0.92,0.18
			C341.93,324.51,340.82,324.51,339.9,323.59z"/>
		<path class="st5" d="M423.34,335.77c0,0.19-0.18,0.37-0.37,0.92c-0.55,0.55-0.37,1.29-0.92,1.85c-0.74,1.29-1.66,2.03-2.4,2.95
			c-0.18,0.55-0.55,0.37-0.74,0.92l-1.11,1.29l-0.55,1.29l-4.06,8.12l-0.37,0.55l-3.51,6.83c-0.55,1.29-0.74,2.21-1.48,3.51
			l-1.48,2.4l-2.21,4.62c-1.29,2.77-1.85,5.17-2.4,7.94c-0.55,2.77-0.74,5.17,0,7.57c0.55,1.29,1.29,2.4,2.21,3.14
			c2.22,2.03,5.35,1.48,7.57,0.18c2.77-1.29,3.69-3.51,6.65-2.58l0.74,0.55c0.74,0.55,0.92,1.48,0.74,2.77
			c-0.55,1.66-1.48,2.21-2.77,3.51c-0.74,0.74-0.92,1.29-1.85,1.85c-0.74,0.55-2.21,0.55-2.95,0.74c-2.03,0.55-4.25,0.74-6.65,0.55
			c-1.66-0.19-3.32-0.74-4.98-2.03c-2.4-2.03-4.62-3.32-5.17-6.46c-0.55-1.66-0.37-3.14-0.37-4.8c0-2.03-1.66-3.51-3.69-3.32
			c-0.74,0.18-1.29,0.55-2.03,1.11c-0.92,0.74-2.22,1.11-3.14,1.66c-0.55,0.55-0.92,0.55-1.48,0.74c-0.92,0.55-2.21,0.55-3.88,0.37
			c-1.66,0-2.95-0.18-4.62-0.74c-1.48-0.55-1.85-0.92-2.4-1.66l-1.48-1.66c-1.11-2.03-1.66-4.25-1.48-6.65
			c0.18-2.03,0.18-3.69,0.74-5.72c0.55-1.29,0.74-2.22,0.74-3.14c0.18-1.29,0.74-2.22,1.29-3.51c0.19-0.92,0-1.85,0.55-2.58
			c0.55-1.29,0.92-1.85,1.48-2.77c0.55-0.74,0.37-1.48,0.92-2.03c0.18-0.55,0.55-0.74,0.74-1.29c0.18-0.55,0.37-0.92,0.92-1.48
			c0.55-0.74,0.55-1.48,1.11-2.03l2.22-2.77c1.29-1.66,1.29-1.85,2.58-3.88c1.48-2.03,3.51-4.43,5.54-5.72
			c0.92-0.55,1.85-0.74,2.77-1.29c1.48-0.55,2.58-1.48,3.88-2.03c0.55-0.18,1.29,0,1.85-0.55c0.55-0.19,1.11-0.55,1.85-0.74
			c0.55,0,0.74,0,0.92-0.18c0.55,0,1.11-0.18,1.66-0.18c0.55-0.18,1.29,0,2.21,0.18c1.29,0,2.22-0.18,3.51,0.37
			c0.92,0.55,1.66,0.37,2.4,0.92c1.29,0.55,1.11,1.11,2.4,1.85c1.66,0.74,2.95,0.55,4.25-0.37c1.29-1.29,2.77-2.59,4.43-1.29
			c0.55,0.18,0.92,0.55,1.11,0.74C423.16,334.67,423.34,335.22,423.34,335.77z M390.48,373.8c0.19,0,0.37,0,0.55-0.18
			c0.55-0.19,0.92-0.19,1.48-0.74l1.11-0.92c0.74-0.55,0.92-0.92,1.48-1.48c2.22-2.22,3.69-4.62,4.62-7.02
			c0.19-0.92,0.92-1.66,1.48-2.59c0.74-1.48,1.66-2.58,2.22-4.06l0.55-1.85c0.55-0.74,0.74-1.48,1.29-2.22
			c0.55-0.55,0.37-0.92,0.92-1.48h-0.18c0.18-0.18,0.18-0.18,0.18-0.37c0.55-1.29,1.11-2.77,1.29-4.25
			c0.55-1.66,0.74-3.88-0.55-5.17c-1.48-1.66-3.14-1.85-5.17-2.4c-1.48-0.18-3.14,0.19-4.8,0.92c-0.37,0.18-1.11,0.37-2.03,0.92
			l-2.58,2.4c-1.29,0.74-2.03,1.85-2.77,2.77c-0.74,0.92-1.66,1.66-2.21,2.58l-1.66,2.21l-0.74,1.48l-1.48,2.22
			c-0.55,0.74-0.55,1.48-1.11,2.22c-0.55,0.74-0.55,1.85-1.11,2.77c-0.74,2.22-1.48,4.43-2.4,6.46l-0.55,2.22
			c0,0.55-0.18,0.74-0.18,1.29c-0.18,0.19-0.37,0.55-0.37,0.74c-0.55,0.55-0.18,1.66-0.18,2.4c0,0.92,0.18,1.85,0.74,2.77
			c0.55,1.29,0.92,2.03,2.22,2.58h1.66c2.03-0.18,3.32-1.48,4.98-2.21C388.45,375.28,389.19,374.36,390.48,373.8z"/>
		<path class="st5" d="M462.85,363.1c-0.55,0.74-0.55,1.48-1.11,2.03c-1.48,2.03-3.32,3.32-4.8,5.35c-1.66,2.21-4.25,3.88-6.46,5.35
			c-2.77,2.03-7.02,4.06-9.97,5.54c-1.29,0.55-3.14,0.92-4.43,1.48c-0.74,0.18-1.66,0.55-2.95,0.74c-3.51,0.74-7.38,0.55-10.52-0.92
			c-0.74-0.55-1.11-0.55-1.85-1.11c-0.18-0.19-0.37-0.37-0.92-0.55l-0.74-0.92l-0.92-1.11c-0.18-0.55-0.55-0.74-0.74-1.29
			c-0.55-1.29-0.92-2.58-1.11-4.06c0-0.55-0.18-1.11-0.18-1.66v-1.66c0-0.92,0.18-1.85,0.37-2.77c0.18-1.29,0.55-2.03,0.74-2.95
			l1.48-3.69c0-0.18,0-0.18,0.18-0.37c0.55-1.29,0.74-2.03,0.55-2.03c0.18-0.92,0.55-1.48,0.92-2.03c0.55-0.92,0.92-1.85,0.92-2.03
			c0.55-0.55,0.37-1.29,0.92-1.85l4.8-6.83l3.88-5.72c2.03-2.95,4.25-4.98,6.65-6.09l2.22-1.29c1.48-0.74,2.95-1.48,4.62-2.03
			c1.29-0.18,2.22-0.37,2.77-0.37h1.29l0.92,0.37c1.29,0.55,2.95,0.55,3.88,1.48c0.74,0.74,1.11,2.59,1.29,3.51
			c0.55,1.66,0.55,3.14,0,4.43l-0.74,2.21c-0.18,0.74,0,1.66-0.18,2.4c-0.18,0.55-1.11,1.29-0.92,1.85c0.55,0.55-2.4,4.06-2.95,4.62
			c-1.29,1.66-2.22,3.32-3.69,4.62c-1.29,1.29-2.03,2.03-3.32,2.95l-0.74,0.55c-2.77,2.03-5.35,4.25-8.86,4.98
			c-0.55,0-0.74,0.18-0.92,0.18c-1.29,0.19-2.03,0.55-2.95,0.55c-1.29,0-2.21-0.74-3.51-0.18c-0.55,0.18-0.92,0.55-1.29,0.92
			c-0.19,0.55-0.74,0.55-0.92,1.11l-0.18,0.74c-0.55,1.29-0.55,2.59-0.37,3.69c0,1.48,0.37,2.77,1.11,3.88
			c1.29,2.03,3.69,1.85,5.72,1.85c2.03,0,4.06,0,5.72-0.55c5.72-1.29,9.6-3.88,13.11-7.02c2.22-2.03,4.8-3.88,6.83-6.28
			c1.29-1.66,2.22-3.32,3.88-4.62c0.74-0.55,1.48-1.29,2.4-1.29c1.48,0.18,2.21,0.92,2.4,2.21
			C464.33,360.88,463.59,361.62,462.85,363.1z M428.51,357.19c0.55,0.55,0.19,0.18,0.74,0.37c0.74,0.55,0.55,0.92,1.48,0.74
			c2.4,0,4.62-1.85,6.65-3.14c2.22-1.66,4.06-3.69,6.09-5.72l1.29-2.03l1.48-2.03c1.29-1.29,2.03-2.77,2.03-4.43
			c0-0.92-0.18-1.66-0.37-2.58c-0.55-1.29-0.37-0.92-1.66-1.11c-1.66-0.55-2.21,0-3.69,0.92c-0.92,0.55-1.85,0.92-2.77,1.66
			c-2.4,1.66-4.43,3.69-5.72,6.46c-1.29,2.77-2.95,4.8-4.62,6.83c-0.55,0.92-0.92,2.03-0.92,3.14V357.19z"/>
		<path class="st5" d="M516.57,306.97c0,0.92-0.19,1.66-0.19,2.95s-0.37,2.58-0.92,4.06c-0.18,0.55-0.92,1.48-1.85,2.4
			c-1.85,2.4-4.06,4.25-6.83,5.54c-0.92,0.55-2.03,0.55-2.77,0.74c-1.29,0.55-2.22,0.74-3.51,0.92c-2.03,0.55-3.69,0-5.35,0
			c-0.92-0.18-1.66-0.18-2.58,0H485c-1.29,0-2.58,0.55-4.06,0.55c-1.48-0.19-2.95-0.37-4.43-0.37l-5.91,0.18
			c-1.48,0-3.51,0.55-4.98,0.37c-1.29-0.55-1.29-0.55-2.58-0.37c-2.95,0.55-5.72,0-8.49,0.55c-1.29,0-2.4-0.37-3.32-0.55h-4.25
			c-2.03-0.18-3.51,0-5.54-0.55c-2.03-0.55-4.25,0.18-6.28,0.18c-1.48,0.18-2.77-0.37-4.25-0.18c-2.4,0.55-4.98,0.37-7.38,0.37
			c-3.51-0.18-6.65,0.55-9.78-0.18c-3.51-0.55-6.09,0.18-9.23,0.18c-2.03,0.18-4.06-0.18-6.28-0.18c-2.03,0.18-3.51,0.37-5.54,0.37
			c-3.69,0-7.38-0.37-11.08-0.37c-3.14,0-6.28,0-9.42-0.18c-0.74,0-1.29-0.18-2.03-0.18c-1.66-0.18-3.51,0.55-4.8-0.92
			c-1.29-1.29-0.92-2.95,0-4.25c1.85-2.4,7.38-0.74,9.78-0.74c1.11,0.18,2.22,0.18,3.51,0c0.92,0,1.66-0.19,2.95-0.19
			c0.55,0,0.74-0.18,1.29-0.18c0.55,0,0.55,0.18,1.11,0.18c0.92,0.19,2.03,0,2.77,0c2.03-0.18,4.06,0,6.09,0
			c1.66,0.19,2.95-0.37,4.43-0.37c2.03,0,3.69,0.37,5.72,0.55c1.11,0,2.03,0,2.58,0.18c1.29,0,2.58-0.55,3.88-0.37
			c0.92,0.19,1.66-0.37,2.95-0.18c0.74,0.18,1.29,0.37,2.03,0.37c2.03,0,4.06-0.18,6.09-0.37h3.51c2.03,0,3.69,0.18,5.72,0.18
			l10.15,0.37c4.62,0.55,9.05,0.18,13.66,0.18c3.88-0.18,7.75,0.19,11.63-0.37c0.74,0,1.66-0.19,2.4-0.19
			c1.66,0.19,3.14,0.37,4.8,0.37c1.29,0,2.4-0.37,3.69-0.55c1.29-0.18,1.85,0,3.14-0.55l2.22-0.55c0.74-0.37,1.66-1.11,2.58-2.22
			l0.74-1.11c0.18-0.55,1.66-0.74,1.66-1.29v0.18c0.37-0.74,0.74-1.29,1.29-1.85l0.74-1.11l0.92-1.29l0.19-0.18l0.92-1.11v-0.18
			l1.29-1.48c0-0.55,0.74-0.74,0.92-0.92l0.55-0.55c0.18-0.19,0.37-0.37,0.55-0.37c0.55-0.74,1.11-1.29,2.03-1.66l0.37-0.37
			l0.92-0.74l1.11-0.55c0.18,0,0.55-0.18,0.74-0.18c0,0,0,0,0.18-0.19h0.18h0.18c0.19-0.18,0.74-0.55,1.48-0.74h0.18h0.19
			c0.18-0.18,0.55-0.37,1.11-0.37h0.18h0.18c0.37,0,0.55,0,0.74-0.19h0.92c0.19,0,0.19-0.18,0.74-0.18c0.55,0,1.11-0.19,1.66-0.19
			c1.29,0,2.77,0.37,4.25,0.92l1.48,0.92c0.55,0.74,0.74,0.55,1.29,1.11c0.55,0.37,0.92,0.92,1.11,1.85
			C515.83,303.46,516.75,304.94,516.57,306.97z M462.11,367.89c0,0.19,0,0.37-0.18,0.55c0.55,0.92,0,1.85-0.55,2.58v0.74
			c-0.18,0.55-0.18,0.92-0.18,1.48c0,1.29,0.18,2.95,1.11,3.88c0.92,1.29,2.4,0.55,3.69,0l1.29-0.55v-0.18
			c1.29-0.74,2.03-1.85,2.77-2.58l0.37-0.37l1.11-1.11l0.55-0.55c0-0.19,0.18-0.37,0.37-0.55c0.18-0.18,0.18-0.55,0.74-0.74
			c1.29-1.48,2.22-2.95,3.14-4.25c0.18-0.55,0.37-0.74,0.37-0.92l0.55-1.11c0.55-1.29,1.29-1.85,1.85-3.14
			c0.55-0.55,0.55-0.92,1.11-1.48c0.55-0.74,1.29-1.29,1.85-1.66c0.55-0.55,1.29-0.55,2.21,0c1.48,0.74,1.48,2.95,0.92,4.25
			c-0.55,0.55-0.37,1.29-0.92,2.03c-0.74,1.29-1.66,2.22-2.4,3.51l-0.55,1.11l-0.92,1.29c-0.92,1.29-1.66,2.77-2.95,4.06v0.18
			c-0.18,0.18-0.37,0.37-0.37,0.55c-1.29,2.03-2.77,3.14-4.25,4.43c-0.19,0.37-0.55,0.74-1.11,0.92l-0.18,0.18l-0.37,0.37
			c-1.48,1.29-2.95,2.4-4.98,2.95c-0.92,0.18-1.66,0.92-2.58,1.11c-0.55,0-1.29-0.19-2.58-0.37c-0.55-0.18-0.74-0.37-0.92-0.37
			c-0.55,0-0.74,0-0.92-0.18c-0.92-0.18-1.48-0.55-2.03-1.11c-0.74-0.92-1.66-1.48-2.22-2.77l-0.37-1.66
			c-0.18-0.55-0.18-1.29,0-2.03c0.18-0.74-0.18-1.66,0-2.4c0-0.92,0-1.66,0.18-2.03c0-0.74,0-1.29,0.18-1.48
			c0-0.18,0.19-0.74,0.37-1.48l0.37-1.11c0-0.37,0-0.55,0.19-0.74c0-0.37,0.18-0.74,0.37-0.92l1.66-3.69l2.22-5.54l1.66-3.32
			c1.48-1.85-1.29,2.95-0.37,0.55c0.92-2.03,1.48-4.06,2.77-6.09c0.55-0.92,0.74-2.22,1.48-3.14c0.55-0.92,1.29-1.85,1.85-2.95
			c0.55-0.92,0.55-2.03,1.29-2.77c1.11-0.92,1.85-1.85,2.03-2.77c0.37-1.29,0.92-2.22,1.48-3.14l0.74-1.48
			c0.74-1.29,1.29-2.21,2.21-3.14c0.74-0.92,1.48-2.03,2.77-2.77c1.29-0.92,3.51-1.29,4.25,0.74c0.55,1.11,0.37,2.4-0.18,3.88
			c-0.19,0.18-0.55,0.74-0.74,1.48c-0.18,0.37-0.37,0.92-0.92,1.66c-0.19,0.55-0.55,0.92-0.92,1.29c-0.55,0.55-0.19,1.29-0.74,1.85
			l-1.48,2.03l-2.77,4.25c-2.03,3.69-4.43,7.02-6.65,10.52c-0.55,1.29-1.11,2.03-1.66,2.95c-0.18,0.55-0.55,0.92-0.74,1.11
			c-0.55,0.92-0.55,2.03-1.11,2.77c-0.55,0.55,3.32-6.28,2.95-5.35c-0.55,0.55-0.37,1.29-0.92,2.03c-0.18,0.55-0.55,1.29-0.74,2.21
			c-0.18,0.19-0.18,0.37-0.37,0.92c-0.55,0.74-0.92,1.11-1.11,1.85c0,0.74-0.55,1.11-0.55,1.66c-0.55,0.74-0.55,1.48-0.74,2.03
			C462.29,366.6,462.29,367.34,462.11,367.89z M510.29,307.71c0-1.48-0.37-3.32-1.85-4.25c-1.66-1.48-3.69-0.18-5.91,0.37
			l-0.37,0.18c-0.55,0-0.37,0.18-0.92,0.18c0,0.19,0,0.19-0.18,0.19v0.18c-0.18,0-0.37,0.18-0.55,0.37l-0.55,0.37l-1.11,0.55
			l-0.18,0.19l-1.29,1.48l-1.66,1.48l-1.66,1.85c-0.55,0.74-0.92,1.66-1.48,2.22c-0.55,1.29-2.03,2.21-0.74,3.51
			c0.55,0.92,2.58,1.11,3.51,1.29c2.03,0.18,4.06-0.55,6.09-0.74c3.88-0.55,8.31-3.88,8.86-8.12V307.71z"/>
		<path class="st5" d="M511.95,334.85c-0.55,0.18-0.55,0.74-1.11,0.92c-2.77,0.55-4.25,2.59-4.8,4.98
			c-0.55,1.29-0.55,2.59-0.37,3.69c0,0.74,0.37,1.29,0.37,2.03c0.18,0.92,0.55,1.85,0.55,2.77c0.18,0.92-0.55,1.48-0.55,2.22
			c0.18,1.29,0.18,2.22,0.18,3.51c0,1.48,0.19,3.14,0.19,4.62c0,2.03,0,4.25-0.19,6.46h-0.18c0.18,0,0.18,0,0.18,0.18
			c0,1.11-0.18,2.22-0.55,3.32c-0.55,1.29-0.37,2.59-0.55,3.88c0,0.19-0.18,0.19-0.18,0.37c-0.55,1.66-1.29,2.95-1.85,4.25
			c-0.92,2.03-2.4,2.95-3.88,4.25c-3.51,2.03-7.94,2.4-11.63,1.11c-1.48-0.55-2.95-1.11-4.43-1.85l-1.11-0.55
			c-0.18,0-0.55-0.74-1.11-0.92l-0.55-0.55c-0.18-0.18-0.37-0.55-0.37-0.74c-0.18-0.18-0.18-0.37-0.18-0.55
			c0-0.55,0.18-0.92,0.37-1.48c0.18-0.55,0.55-0.37,1.11-0.92c0.18-0.18,0.55-0.37,0.92-0.37h0.55h0.74l0.74,0.37
			c0.55,0,1.11,0.18,1.29,0.37c0.55,0,0.18,0.37,0.74,0.37l0.18,0.18c0.18,0,0.18,0,0.37,0.19c0.55,0.18,0.74,0.37,0.74,0.37
			c0-0.18,0.19,0,0.55,0.37c0.55,0,0.74,0.18,1.29,0.37c1.48,0.55,2.77,0.19,4.25,0c1.29,0,2.4-1.11,2.95-2.03
			c1.29-1.29,2.22-2.4,2.77-4.06c0.55-2.22,1.29-4.43,1.29-6.83c0-2.4-0.55-4.43,0-6.83c0.18-1.29,0.74-2.77,0.18-4.25
			c-0.18-0.74,0-1.29-0.18-2.03c-0.18-0.18-0.18-0.37-0.18-0.55l-0.55-0.74c0-0.18,0-0.18-0.18-0.18c-1.29-1.48-3.32-1.85-4.62-0.55
			c-1.66,1.29-2.77,3.88-4.06,5.54l-2.03,2.4c0,0.18-0.18,0.37-0.74,0.55c0,0,0,0-0.18,0.18c-0.55,0.55-0.74,1.29-1.29,1.85
			c-0.18,0.18-0.37,0.55-0.37,0.74l-1.11,1.29c-0.19,0-0.37,0.18-0.55,0.18c-0.37,0.37-0.74,0.55-1.29,0.74h-0.37
			c-0.55,0-0.55-0.19-1.11-0.19c-0.18-0.18-0.18-0.18-0.37-0.18c-0.55-0.18-0.74-0.37-0.92-0.55c-0.55-0.92-0.55-1.85-0.18-2.77
			c0-0.18,0.18-0.37,0.55-0.74v-0.37c0-0.18,0-0.18,0.18-0.18c0.37-0.37,0.55-0.74,0.55-1.11l1.48-1.66l0.18-0.18
			c0.92-0.55,1.48-1.48,2.03-2.58l0.55-1.11c0.18-0.55,0.55-0.92,0.74-1.11l0.55-0.55l0.18-0.18l1.48-1.85
			c0-0.19,0.18-0.37,0.37-0.55c0-0.18,0.18-0.18,0.18-0.37l0.55-1.11c0.55-0.92,0.92-1.66,1.29-2.03l1.11-1.11l1.11-1.11l0.74-0.55
			l1.48-1.11c0-0.18,0-0.18,0.18-0.37l1.11-1.66c0.55-0.74,1.29-1.48,2.03-2.03c2.03-2.03,3.69-3.88,6.09-5.35
			c2.03-1.29,4.62-2.03,6.28,0C512.88,332.08,513.06,333.56,511.95,334.85z"/>
	</g>
</g>
</svg>
